<?xml version="1.0" standalone="no"?><!DOCTYPE svg PUBLIC "-//W3C//DTD SVG 1.1//EN" "http://www.w3.org/Graphics/SVG/1.1/DTD/svg11.dtd"><svg t="1783002563495" class="icon" viewBox="0 0 1024 1024" version="1.1" xmlns="http://www.w3.org/2000/svg" p-id="13069" xmlns:xlink="http://www.w3.org/1999/xlink" width="200" height="200"><path d="M945.524886 941.180405l-1.816219 8.717852a54.486576 54.486576 0 0 1-84.272571 33.055189 61.388209 61.388209 0 0 1-22.521118-33.055189l-51.217381-145.297535-32.328701-91.900692c-2.179463-6.538389-5.448658-12.713534-7.628121-19.615167a7.991364 7.991364 0 0 0-8.717852-6.175145H406.47103a66.473622 66.473622 0 0 1-63.930916-56.666039c-3.995682-27.243288-7.264877-54.486576-10.897315-81.729863s-9.081096-62.47794-13.076778-93.716911-9.081096-69.379573-13.803266-104.250981c-2.542707-18.88868-5.448658-36.324384-7.991364-56.302795a91.900691 91.900691 0 0 1 75.191474-104.614226 88.631497 88.631497 0 0 1 89.357984 36.324384 103.887738 103.887738 0 0 1 18.88868 53.396844c2.905951 21.79463 5.811901 43.952504 9.081096 65.747135 0 6.538389 2.179463 13.076778 2.905951 19.251923s3.632438 5.811901 7.62812 5.811902h163.822971a44.315748 44.315748 0 0 1 43.952505 53.396844 42.136285 42.136285 0 0 1-36.324384 34.508165h-165.275946c0 7.628121 0 14.529754 2.179463 21.068142 2.905951 22.521118 6.175145 44.678992 9.081096 67.20011 0 4.72217 2.905951 6.175145 6.901632 6.175146h236.108495a72.648768 72.648768 0 0 1 46.495212 13.440022 69.379573 69.379573 0 0 1 22.884362 33.418433l41.046553 115.511541 34.144921 95.896373 39.230335 108.973151a119.870467 119.870467 0 0 1 2.90595 13.440022v5.448658z m0 0" p-id="13070" fill="#ffffff"></path><path d="M77.008868 690.178912c0-7.264877 2.179463-14.892997 2.542707-22.157874a287.68912 287.68912 0 0 1 11.260559-65.020647 321.470797 321.470797 0 0 1 46.858455-98.075836 326.919455 326.919455 0 0 1 68.289842-72.648768 321.834041 321.834041 0 0 1 70.469305-41.409797h5.811901l7.264877 58.482258a25.063825 25.063825 0 0 0 0 3.995682c3.269195 11.623803 4.358926 11.987047-7.628121 18.162192a232.112813 232.112813 0 0 0-57.392526 43.58926A244.099859 244.099859 0 0 0 178.353899 581.205761a250.638249 250.638249 0 0 0-23.610849 72.648768 265.531246 265.531246 0 0 0 0 76.281206 254.270687 254.270687 0 0 0 154.378631 201.237086 214.677109 214.677109 0 0 0 66.110379 17.072461c12.713534 0 25.063825 2.542707 36.324384 2.542706a249.185273 249.185273 0 0 0 108.973151-26.153556 247.369054 247.369054 0 0 0 74.828231-55.576307 261.898808 261.898808 0 0 0 47.948186-74.464987 299.676167 299.676167 0 0 0 18.162192-65.383891c0-5.085414 0-12.713534 2.905951-15.256241s10.170827 0 15.619485 0h47.584943c7.991364 0 9.44434 0 8.354608 9.081096-2.179463 15.256241-3.995682 30.875726-7.264876 46.131967a307.304287 307.304287 0 0 1-23.974094 66.110379A345.081647 345.081647 0 0 1 658.19901 905.945753a341.085964 341.085964 0 0 1-57.75577 54.486575 321.470797 321.470797 0 0 1-83.909327 44.678992 363.243838 363.243838 0 0 1-72.648768 17.435705H377.411523A340.359477 340.359477 0 0 1 336.364969 1017.098367a518.712201 518.712201 0 0 1-66.110379-22.521118 284.056682 284.056682 0 0 1-50.490893-29.422751 331.641624 331.641624 0 0 1-45.768724-38.867091 412.645 412.645 0 0 1-41.773041-50.490893 290.595071 290.595071 0 0 1-32.328702-62.47794 324.013504 324.013504 0 0 1-21.79463-108.973152 39.956822 39.956822 0 0 0 0-6.901633zM415.91537 0.015619A86.452034 86.452034 0 1 1 331.279555 92.279554 86.815277 86.815277 0 0 1 415.91537 0.015619z m0 0" p-id="13071" fill="#ffffff"></path></svg>