<?xml version="1.0" standalone="no"?><!DOCTYPE svg PUBLIC "-//W3C//DTD SVG 1.1//EN" "http://www.w3.org/Graphics/SVG/1.1/DTD/svg11.dtd"><svg t="1783004265557" class="icon" viewBox="0 0 1024 1024" version="1.1" xmlns="http://www.w3.org/2000/svg" p-id="6193" xmlns:xlink="http://www.w3.org/1999/xlink" width="200" height="200"><path d="M510.8 960c-215.2 0-390.2-175-390.2-390.2s175-390.2 390.2-390.2S901 354.6 901 569.8 725.9 960 510.8 960z m0-690.9C345 269.1 210.1 404 210.1 569.8S345 870.4 510.8 870.4s300.7-134.9 300.7-300.7-134.9-300.6-300.7-300.6z" fill="#ffffff" p-id="6194"></path><path d="M510.8 269.1c-24.7 0-44.8-20-44.8-44.8V109.4c0-24.7 20-44.8 44.8-44.8 24.7 0 44.8 20 44.8 44.8v114.9c-0.1 24.7-20.1 44.8-44.8 44.8z" fill="#ffffff" p-id="6195"></path><path d="M609.4 154.2H408c-24.7 0-44.8-20-44.8-44.8s20-44.8 44.8-44.8h201.4c24.7 0 44.8 20 44.8 44.8s-20.1 44.8-44.8 44.8zM758.6 366.7c-11.5 0-22.9-4.4-31.7-13.1-17.5-17.5-17.5-45.8 0-63.3l63.8-63.8c17.5-17.5 45.8-17.5 63.3 0s17.5 45.8 0 63.3l-63.8 63.8c-8.7 8.8-20.2 13.1-31.6 13.1zM509.5 633.9c-11.5 0-22.9-4.4-31.7-13.1L331.4 474.3c-17.5-17.5-17.5-45.8 0-63.3s45.8-17.5 63.3 0l146.5 146.5c17.5 17.5 17.5 45.8 0 63.3-8.8 8.8-20.3 13.1-31.7 13.1z" fill="#ffffff" p-id="6196"></path></svg>