<?xml version="1.0" standalone="no"?><!DOCTYPE svg PUBLIC "-//W3C//DTD SVG 1.1//EN" "http://www.w3.org/Graphics/SVG/1.1/DTD/svg11.dtd"><svg t="1783002663781" class="icon" viewBox="0 0 1024 1024" version="1.1" xmlns="http://www.w3.org/2000/svg" p-id="17609" xmlns:xlink="http://www.w3.org/1999/xlink" width="200" height="200"><path d="M232 512h-81c-30.327 0-55 24.673-55 55v306c0 30.327 24.673 55 55 55h81c30.327 0 55-24.673 55-55V567c0-30.327-24.673-55-55-55z m-9 352h-63V576h63v288zM873 321h-81c-30.327 0-55 24.673-55 55v497c0 30.327 24.673 55 55 55h81c30.327 0 55-24.673 55-55V376c0-30.327-24.673-55-55-55z m-9 543h-63V385h63v479zM552 97h-81c-30.327 0-55 24.673-55 55v721c0 30.327 24.673 55 55 55h81c30.327 0 55-24.673 55-55V152c0-30.327-24.673-55-55-55z m-9 767h-63V161h63v703z" p-id="17610" fill="#ffffff"></path></svg>