<?xml version="1.0" standalone="no"?><!DOCTYPE svg PUBLIC "-//W3C//DTD SVG 1.1//EN" "http://www.w3.org/Graphics/SVG/1.1/DTD/svg11.dtd"><svg t="1783002365768" class="icon" viewBox="0 0 1024 1024" version="1.1" xmlns="http://www.w3.org/2000/svg" p-id="5473" xmlns:xlink="http://www.w3.org/1999/xlink" width="200" height="200"><path d="M762.453333 162.005333H261.546667a166.229333 166.229333 0 0 0-165.845334 158.250667l-18.858666 380.586667a153.258667 153.258667 0 0 0 135.082666 159.957333 170.154667 170.154667 0 0 0 117.461334-29.269333l8.234666-6.016c29.44-22.997333 52.010667-55.466667 65.706667-94.378667l3.072-9.386667h216.448l1.237333 4.309334c13.653333 45.141333 40.106667 87.509333 72.533334 108.202666a176.213333 176.213333 0 0 0 115.456 26.538667 153.258667 153.258667 0 0 0 135.082666-159.914667l-18.816-380.672a166.229333 166.229333 0 0 0-165.888-158.208zM261.546667 221.994667h500.906666a106.24 106.24 0 0 1 105.941334 101.205333l18.816 380.629333a93.269333 93.269333 0 0 1-82.133334 97.365334 116.224 116.224 0 0 1-76.16-17.493334c-23.125333-14.762667-45.781333-56.96-52.650666-96.981333a29.994667 29.994667 0 0 0-29.568-24.917333H383.189333a29.994667 29.994667 0 0 0-29.354666 23.893333c-8.96 43.093333-29.909333 76.672-58.581334 96.554667a110.165333 110.165333 0 0 1-76.373333 18.944 93.269333 93.269333 0 0 1-82.133333-97.365334l18.858666-380.629333A106.24 106.24 0 0 1 261.546667 221.994667z" fill="#ffffff" p-id="5474"></path><path d="M667.434667 393.130667m-45.696 0a45.696 45.696 0 1 0 91.392 0 45.696 45.696 0 1 0-91.392 0Z" fill="#ffffff" p-id="5475"></path><path d="M758.869333 502.869333m-45.696 0a45.696 45.696 0 1 0 91.392 0 45.696 45.696 0 1 0-91.392 0Z" fill="#ffffff" p-id="5476"></path><path d="M420.565333 416a32 32 0 0 1 4.352 63.701333l-4.352 0.298667H274.346667a32 32 0 0 1-4.352-63.701333l4.352-0.298667h146.261333z" fill="#ffffff" p-id="5477"></path><path d="M347.434667 342.869333a32 32 0 0 1 31.701333 27.648l0.298667 4.352v146.261334a32 32 0 0 1-63.701334 4.352l-0.298666-4.352V374.869333a32 32 0 0 1 32-32z" fill="#ffffff" p-id="5478"></path></svg>