<?xml version="1.0" standalone="no"?><!DOCTYPE svg PUBLIC "-//W3C//DTD SVG 1.1//EN" "http://www.w3.org/Graphics/SVG/1.1/DTD/svg11.dtd"><svg t="1783004201434" class="icon" viewBox="0 0 1024 1024" version="1.1" xmlns="http://www.w3.org/2000/svg" p-id="5039" xmlns:xlink="http://www.w3.org/1999/xlink" width="200" height="200"><path d="M511.6 64.223c-188.811 0-342.42 153.609-342.42 342.42 0 125.592 69.757 241.817 179.07 301.388l0.004 145.051c0 58.712 53.616 106.477 119.517 106.477h87.656c65.9 0 119.517-47.765 119.517-106.477V708.028C784.261 648.456 854.02 532.232 854.02 406.643c0-188.811-153.609-342.42-342.42-342.42z m50.01 832.105H461.585c-16.037 0-29.039-13.002-29.039-29.039s13.002-29.039 29.039-29.039H561.61c16.037 0 29.039 13.002 29.039 29.039 0.001 16.037-13.002 29.039-29.039 29.039z m0-93.588H461.585c-16.037 0-29.039-13.002-29.039-29.039s13.002-29.039 29.039-29.039H561.61c16.037 0 29.039 13.002 29.039 29.039s-13.002 29.039-29.039 29.039z m159.267-369.993c-16.037 0-29.039-13.002-29.039-29.039a183.44 183.44 0 0 0-2.68-31.27c-10.568-60.881-50.965-111.647-108.055-135.795-14.775-6.248-21.685-23.287-15.436-38.057 6.248-14.77 23.297-21.675 38.057-15.436 75.363 31.875 128.696 98.924 142.657 179.358a241.238 241.238 0 0 1 3.535 41.2c0 16.036-13.003 29.039-29.039 29.039z" fill="#ffffff" p-id="5040"></path></svg>