<?xml version="1.0" encoding="UTF-8" standalone="no"?>
<!-- Created with Inkscape (http://www.inkscape.org/) -->

<svg
   width="171.24277mm"
   height="52.515072mm"
   viewBox="0 0 171.24277 52.515072"
   version="1.1"
   id="svg1"
   xml:space="preserve"
   inkscape:version="1.4.3 (0d15f75, 2025-12-25)"
   sodipodi:docname="SO星栈跃动ZH.svg"
   xmlns:inkscape="http://www.inkscape.org/namespaces/inkscape"
   xmlns:sodipodi="http://sodipodi.sourceforge.net/DTD/sodipodi-0.dtd"
   xmlns="http://www.w3.org/2000/svg"
   xmlns:svg="http://www.w3.org/2000/svg"><sodipodi:namedview
     id="namedview1"
     pagecolor="#505050"
     bordercolor="#eeeeee"
     borderopacity="1"
     inkscape:showpageshadow="0"
     inkscape:pageopacity="0"
     inkscape:pagecheckerboard="0"
     inkscape:deskcolor="#505050"
     inkscape:document-units="mm"
     inkscape:zoom="1.3843855"
     inkscape:cx="254.98678"
     inkscape:cy="131.82744"
     inkscape:window-width="1920"
     inkscape:window-height="991"
     inkscape:window-x="-9"
     inkscape:window-y="-9"
     inkscape:window-maximized="1"
     inkscape:current-layer="layer1" /><defs
     id="defs1"><rect
       x="163.44737"
       y="737.55627"
       width="477.06201"
       height="117.47779"
       id="rect15" /><rect
       x="159.36118"
       y="739.59937"
       width="504.64374"
       height="108.28388"
       id="rect14" /></defs><g
     inkscape:label="图层 1"
     inkscape:groupmode="layer"
     id="layer1"
     transform="translate(-26.879216,-105.53096)"><path
       style="fill:#0066cc;fill-opacity:1;stroke-width:0.440038"
       d="m 45.338291,156.19933 c -2.049101,-1.04564 -5.873671,-2.99487 -8.499061,-4.33163 -2.625397,-1.33677 -5.926064,-3.02032 -7.334805,-3.74123 l -2.561366,-1.31083 -0.03314,-3.80076 c -0.01817,-2.09047 0.0084,-3.78271 0.0582,-3.76067 0.206337,0.0908 13.954843,7.06213 15.459386,7.83898 0.896479,0.46279 2.797399,1.43843 4.224274,2.16799 l 2.594317,1.32635 1.305934,-0.67077 c 0.718269,-0.36883 4.842359,-2.46003 9.164671,-4.64705 4.322307,-2.18694 8.762459,-4.43447 9.867054,-4.9945 l 2.008354,-1.01818 -4.51e-4,3.80248 -4.49e-4,3.80247 -4.685476,2.35477 c -2.57703,1.29503 -7.514629,3.79805 -10.972483,5.56219 -3.457839,1.76405 -6.417947,3.23314 -6.578038,3.26455 -0.215254,0.0423 -1.261377,-0.43805 -4.016672,-1.84416 z m -3.550988,-13.04276 c -10.380027,-5.27712 -14.33683,-7.3048 -14.643308,-7.50427 l -0.264779,-0.17225 0.0093,-3.71039 c 0.0051,-2.04071 0.03914,-3.71036 0.0762,-3.71036 0.03708,0 4.994917,2.50167 11.017547,5.55927 6.022637,3.05765 11.01919,5.5763 11.103465,5.59692 0.122804,0.0299 0.153216,0.79853 0.153216,3.87125 0,2.10836 -0.0131,3.83239 -0.02905,3.83092 -0.01596,-0.003 -3.355967,-1.69381 -7.422123,-3.76109 z m 1.919571,-10.26116 c -3.072829,-1.56018 -8.101757,-4.11751 -11.175385,-5.68295 l -5.58843,-2.84628 -0.03068,-3.79555 -0.03068,-3.79553 4.629499,2.34004 c 2.54622,1.28702 7.548003,3.82596 11.115061,5.6421 3.567054,1.81613 6.541326,3.30206 6.609488,3.30206 0.06821,0 2.336416,-1.1196 5.040555,-2.488 12.765328,-6.45968 17.191175,-8.68886 17.251008,-8.68886 0.03544,0 0.06494,1.70271 0.06494,3.78383 0,2.08111 -0.03927,3.78383 -0.08732,3.78384 -0.139056,3e-5 -19.093456,9.60211 -21.2782,10.77932 l -0.93286,0.50264 z m 4.250976,-9.03826 c -0.608321,-0.32363 -3.227892,-1.66515 -5.821271,-2.98117 -10.506037,-5.33126 -10.129004,-5.11353 -10.129004,-5.84926 0,-0.67019 0.429235,-0.96335 4.169546,-2.84769 1.965014,-0.98996 4.856329,-2.45955 6.42517,-3.26575 1.568826,-0.80619 3.708801,-1.89703 4.755487,-2.42406 l 1.903071,-0.95826 1.938964,1.00522 c 1.066433,0.55286 4.794304,2.45693 8.284156,4.23126 3.489822,1.77432 6.464702,3.34187 6.610784,3.48342 0.146039,0.14155 0.296023,0.44532 0.333314,0.67504 0.124224,0.76544 -0.183924,0.96365 -6.303744,4.05468 -3.073648,1.55244 -6.746282,3.41819 -8.16144,4.14608 -1.41515,0.72789 -2.64635,1.32244 -2.735998,1.32121 -0.08965,-0.002 -0.660711,-0.26704 -1.269035,-0.59072 z m 4.199694,-7.27462 c 1.59624,-0.80528 2.902262,-1.50772 2.902262,-1.56096 0,-0.0796 -2.917073,-1.6206 -5.25953,-2.7784 l -0.552957,-0.27331 -2.91474,1.49578 c -1.603112,0.82268 -2.913594,1.52198 -2.912189,1.55399 0.0022,0.0476 5.674412,3.00413 5.797421,3.02171 0.02053,0.003 1.343501,-0.65352 2.939733,-1.45881 z"
       id="path9" /><path
       d="m 84.090067,119.80506 q 1.02154,0 2.223352,0.12018 1.201812,0.10015 2.343534,0.42064 l -0.200302,2.04308 q -0.881329,-0.0401 -2.083141,-0.0601 -1.181782,-0.02 -2.303473,-0.02 -0.741117,0 -1.201812,0.0801 -0.440664,0.0801 -0.640966,0.36054 -0.180272,0.26039 -0.180272,0.88133 0,0.72109 0.320483,1.04157 0.340513,0.32048 1.141721,0.56085 l 2.664017,0.86129 q 1.642476,0.58088 2.283443,1.54233 0.660996,0.94142 0.660996,2.50377 0,1.58239 -0.500755,2.46372 -0.500755,0.8613 -1.642476,1.20181 -1.121691,0.34051 -3.00453,0.34051 -0.681027,0 -1.942929,-0.10015 -1.261903,-0.0801 -2.864319,-0.44066 l 0.180272,-2.16326 q 1.782688,0.0601 2.844288,0.0801 1.081631,0.02 1.782688,0.02 1.201812,0 1.642476,-0.24036 0.440665,-0.2604 0.440665,-1.1217 0,-0.74111 -0.320484,-1.04157 -0.300453,-0.30045 -1.02154,-0.52078 l -2.804228,-0.96145 q -1.602415,-0.56085 -2.263412,-1.50227 -0.640966,-0.94141 -0.640966,-2.50377 0,-1.58239 0.500755,-2.40362 0.520785,-0.84127 1.642476,-1.14173 1.121691,-0.30045 2.944439,-0.30045 z m 17.506403,0.26039 v 2.40363 h -4.166282 v 11.41721 h -3.04459 v -11.41721 h -4.166281 v -2.40363 z m 7.17079,0 q 0.38057,0 0.66099,0.22034 0.30045,0.22033 0.40061,0.58087 l 4.00604,13.01963 h -3.12472 l -1.02154,-3.66552 h -4.76718 l -1.00151,3.66552 h -3.12471 l 4.00604,-13.01963 q 0.10015,-0.36054 0.38057,-0.58087 0.30045,-0.22034 0.68103,-0.22034 z m -2.02306,3.6455 -1.18178,4.22637 h 3.48526 l -1.16175,-4.22637 q -0.10015,-0.32048 -0.18028,-0.661 -0.0601,-0.36054 -0.12018,-0.68102 h -0.54081 q -0.0601,0.32048 -0.14021,0.68102 -0.0801,0.34052 -0.16025,0.661 z m 13.76075,-3.88586 q 0.96145,0 1.66251,0.0601 0.70106,0.0401 1.28193,0.14021 0.58088,0.10015 1.20181,0.2604 l -0.24036,2.26341 q -0.661,-0.0401 -1.22184,-0.0601 -0.56085,-0.02 -1.20181,-0.0401 -0.62094,-0.02 -1.48224,-0.02 -1.02154,0 -1.60241,0.42063 -0.58088,0.40061 -0.82124,1.38209 -0.22033,0.98148 -0.22033,2.74413 0,1.74263 0.22033,2.74414 0.24036,0.98148 0.82124,1.38208 0.58087,0.40061 1.60241,0.40061 1.38209,0 2.3235,-0.02 0.94142,-0.0401 1.86281,-0.16024 l 0.2604,2.24338 q -0.96145,0.30045 -1.96296,0.42063 -1.00151,0.14021 -2.48375,0.14021 -2.14323,0 -3.44519,-0.68102 -1.28194,-0.70106 -1.84278,-2.26342 -0.56085,-1.56235 -0.56085,-4.20634 0,-2.64398 0.56085,-4.20634 0.56084,-1.56235 1.84278,-2.24338 1.30196,-0.70106 3.44519,-0.70106 z m 9.43421,0.24036 v 3.90589 q 0,0.8613 -0.16024,1.66251 h 1.24187 l 3.52531,-5.5684 h 3.30499 l -3.60544,5.5684 q -0.22033,0.36054 -0.48072,0.62094 -0.2604,0.24036 -0.52079,0.42063 v 0.0601 q 0.28042,0.18027 0.60091,0.50076 0.32048,0.32048 0.52078,0.66099 l 3.72562,5.98903 h -3.40513 l -3.6455,-6.12924 h -1.2619 q 0.0801,0.36054 0.12018,0.70106 0.0401,0.34051 0.0401,0.66099 v 4.76719 h -3.04459 v -13.82084 z m 14.6421,-0.28042 q 1.64248,0 2.76417,0.36054 1.14172,0.34052 1.84278,1.16176 0.70105,0.82123 1.02154,2.20332 0.32048,1.38208 0.32048,3.46522 0,2.08314 -0.32048,3.46523 -0.32049,1.38208 -1.02154,2.20332 -0.70106,0.82124 -1.84278,1.16175 -1.12169,0.34051 -2.76417,0.34051 -1.64248,0 -2.7842,-0.34051 -1.14172,-0.34051 -1.84278,-1.16175 -0.70105,-0.82124 -1.02154,-2.20332 -0.30045,-1.38209 -0.30045,-3.46523 0,-2.08314 0.30045,-3.46522 0.32049,-1.38209 1.02154,-2.20332 0.70106,-0.82124 1.84278,-1.16176 1.14172,-0.36054 2.7842,-0.36054 z m 0,2.40363 q -1.0616,0 -1.66251,0.42063 -0.58087,0.42063 -0.84126,1.4622 -0.24037,1.04157 -0.24037,2.90438 0,1.86281 0.24037,2.90438 0.26039,1.04157 0.84126,1.46221 0.60091,0.4006 1.66251,0.4006 1.04157,0 1.64248,-0.4006 0.6009,-0.42064 0.84127,-1.46221 0.24036,-1.04157 0.24036,-2.90438 0,-1.86281 -0.24036,-2.90438 -0.24037,-1.04157 -0.84127,-1.4622 -0.60091,-0.42063 -1.64248,-0.42063 z m 19.36922,-2.12321 -3.76567,12.97957 q -0.10016,0.38058 -0.40061,0.62094 -0.30045,0.22033 -0.68103,0.22033 h -2.80422 q -0.40061,0 -0.70106,-0.22033 -0.28042,-0.24036 -0.38057,-0.62094 l -3.76568,-12.97957 h 3.14474 l 2.52381,9.97504 q 0.0801,0.38058 0.16024,0.78118 0.0801,0.38057 0.16024,0.76115 h 0.52078 q 0.14021,-0.78118 0.34052,-1.56236 l 2.50377,-9.95501 z m 7.41118,0 q 0.38058,0 0.661,0.22034 0.30045,0.22033 0.4006,0.58087 l 4.00604,13.01963 h -3.12471 l -1.02154,-3.66552 h -4.76719 l -1.00151,3.66552 h -3.12471 l 4.00604,-13.01963 q 0.10015,-0.36054 0.38058,-0.58087 0.30045,-0.22034 0.68102,-0.22034 z m -2.02305,3.6455 -1.18178,4.22637 h 3.48526 l -1.16176,-4.22637 q -0.10015,-0.32048 -0.18027,-0.661 -0.0601,-0.36054 -0.12018,-0.68102 h -0.54081 q -0.0601,0.32048 -0.14022,0.68102 -0.0801,0.34052 -0.16024,0.661 z m 17.64661,-3.6455 v 2.40363 h -4.16628 v 11.41721 h -3.04459 v -11.41721 h -4.16628 v -2.40363 z m 4.5869,-0.0601 q 1.62244,0 3.36507,0.0401 1.74263,0.02 3.1848,0.16025 l -0.14021,2.22335 h -5.308 q -1.00151,0 -1.00151,1.02154 v 2.16326 h 5.56839 v 2.16326 h -5.56839 v 2.72411 q 0,1.02154 1.00151,1.02154 h 5.308 l 0.14021,2.22335 q -1.44217,0.14021 -3.1848,0.16024 -1.74263,0.02 -3.36507,0.02 -1.322,0 -2.14323,-0.74112 -0.82124,-0.76114 -0.82124,-2.02305 v -8.37262 q 0,-1.2619 0.82124,-2.02305 0.82123,-0.76115 2.14323,-0.76115 z"
       id="text3"
       style="font-weight:bold;font-size:20.0302px;font-family:'Exo 2';-inkscape-font-specification:'Exo 2 Bold';stroke-width:0.630873;stroke-opacity:0.451737"
       aria-label="STACKOVATE" /><path
       d="m 87.407535,138.81203 -0.473149,4.5097 h -7.703454 l 0.591436,-5.63343 h 6.56494 q 0.57665,0 0.82801,0.32529 0.251361,0.32529 0.192217,0.79844 z m -6.520582,1.13851 h 5.130707 l 0.118288,-1.07937 H 81.00524 Z m -0.25136,2.17353 h 5.160279 l 0.118287,-1.07937 h -5.145493 z m -1.892595,5.41164 -0.90194,-0.79844 q 0.650579,-0.62101 1.123728,-1.38987 0.473149,-0.78366 0.813225,-1.6856 l 1.1533,0.36965 q -0.08872,0.22179 -0.192217,0.44358 -0.08871,0.22179 -0.192217,0.45836 h 2.084812 l 0.133073,-1.21244 h 1.271588 l -0.133073,1.21244 h 3.371185 l -0.133073,1.24202 h -3.3564 l -0.133073,1.19766 h 3.119825 l -0.133073,1.24201 h -3.119825 l -0.133073,1.33073 h 3.918264 l -0.133073,1.24202 h -9.389047 l 0.133073,-1.24202 h 4.199196 l 0.133073,-1.33073 h -3.016324 l 0.133073,-1.24201 h 3.016324 l 0.133073,-1.19766 h -2.676248 q -0.221788,0.34007 -0.50272,0.69494 -0.266147,0.34007 -0.591436,0.66536 z m 11.28163,1.03501 -0.931512,-0.44357 q 0.709723,-1.65602 1.256802,-3.32683 0.561864,-1.67081 0.931511,-3.40076 h -0.768866 l 0.133073,-1.18287 h 1.197658 l 0.325289,-3.00154 h 1.197658 l -0.32529,3.00154 h 0.828011 l -0.133073,1.18287 h -0.828011 l -0.08871,0.90194 q 0.517506,0.56187 1.064585,1.22723 l -0.621008,1.00544 q -0.310504,-0.414 -0.606222,-0.78365 l -0.813224,7.77738 h -1.182872 l 0.82801,-7.52602 q -0.280932,1.13851 -0.635794,2.27703 -0.354861,1.12373 -0.82801,2.29181 z m 3.134611,2.75018 -0.621008,-1.12373 q 1.759522,-0.70972 3.267684,-1.83345 -0.05914,-0.42879 -0.08872,-0.88715 -0.04436,-0.59144 -0.07393,-1.22723 -0.01479,-0.6358 -0.02957,-1.28638 l -1.700378,0.22179 -0.02957,-1.27158 1.72995,-0.23658 q 0,-0.90194 0.02957,-1.86302 l -1.434232,0.14786 -0.02957,-1.27159 1.508162,-0.16265 q 0.04436,-0.81322 0.08871,-1.61166 0.04436,-0.81322 0.103501,-1.59688 h 1.256802 q -0.04436,0.76887 -0.103501,1.53774 -0.04436,0.76886 -0.07393,1.52295 l 2.868465,-0.31051 0.04436,1.28637 -2.971966,0.31051 q -0.01479,0.47315 -0.02957,0.93151 0,0.45836 0,0.91673 l 2.927608,-0.39922 0.04436,1.28637 -2.971966,0.39922 q 0.01479,0.66536 0.02957,1.30116 0.02957,0.63579 0.08872,1.22723 v 0.0296 q 0.50272,-0.50272 0.931512,-1.03501 0.443577,-0.5323 0.783652,-1.09416 l 0.97587,0.68015 q -1.064585,1.68559 -2.513603,2.97197 0.133073,0.68015 0.295718,0.99065 0.162645,0.29572 0.354861,0.29572 0.207003,0 0.39922,-0.42879 0.192216,-0.42879 0.25136,-1.33073 l 1.168086,0.0887 q -0.133073,1.46381 -0.57665,2.29182 -0.443577,0.8428 -1.286373,0.8428 -0.591436,0 -1.020228,-0.51751 -0.414005,-0.50272 -0.665365,-1.37509 -1.345517,0.96108 -2.927608,1.58209 z m 5.101135,-13.9431 q 0.428791,0.26614 0.813225,0.62101 0.384433,0.34007 0.754081,0.73929 l -0.783653,0.85758 q -0.665366,-0.82801 -1.508162,-1.37509 z m 6.727576,14.26839 -0.79844,-1.00544 q 0.81322,-0.60622 1.53773,-1.64124 0.72451,-1.04979 1.2568,-2.32138 0.54708,-1.28637 0.81323,-2.58753 h -2.12917 l 0.13307,-1.28638 h 2.17353 l 0.34007,-3.44511 q -0.87236,0.16264 -1.74473,0.26614 l -0.26615,-1.24201 q 1.31595,-0.16265 2.57275,-0.44358 1.2568,-0.28093 2.42489,-0.66536 l 0.39922,1.16808 q -1.02023,0.36965 -2.15875,0.65058 l -0.34007,3.71126 h 2.43967 l -0.14786,1.28638 h -2.29181 q 0.0444,1.1533 0.28093,2.33617 0.23658,1.16808 0.66537,2.24746 0.42879,1.06458 1.00544,1.92216 l -0.97587,1.00544 q -0.70972,-1.16808 -1.1533,-2.48403 -0.44358,-1.33073 -0.6358,-2.73539 -0.38443,1.06459 -0.91672,2.07003 -0.51751,1.00544 -1.1533,1.83345 -0.6358,0.82801 -1.33073,1.3603 z m -3.74084,-1.13851 -0.29571,-1.12373 q 0.29571,-0.0739 0.56186,-0.13307 l 0.59144,-5.61865 h 0.96108 l -0.56186,5.33771 q 0.25136,-0.0739 0.48793,-0.14786 l 0.69494,-6.57972 h -1.2568 l 0.48793,-4.48013 h 2.07003 q 0.56186,0 0.75408,0.28093 0.207,0.28093 0.16264,0.72451 l -0.38443,3.47469 h -0.70972 l -0.25136,2.26224 h 0.97587 l -0.13308,1.19766 h -0.96108 l -0.29572,2.7206 q 0.47315,-0.17743 0.91673,-0.36964 l 0.39922,1.09415 q -1.00545,0.42879 -2.05524,0.76887 -1.0498,0.32529 -2.15875,0.59144 z m 2.42489,-9.35948 h 0.8428 l 0.25136,-2.29181 h -0.85758 z m 14.60846,10.45363 -1.00544,-0.79844 q 0.53229,-0.84279 0.9463,-1.78909 l -0.90194,0.23658 q -0.0591,-0.38444 -0.14786,-0.8428 -0.90194,0.414 -1.84824,0.78365 -0.93151,0.36965 -1.92217,0.72451 l -0.3105,-1.22723 q 0.23657,-0.0739 0.45836,-0.14786 0.51751,-1.16808 0.9463,-2.4101 0.42879,-1.2568 0.79844,-2.55796 h -1.49338 l 0.14786,-1.30116 h 4.8202 l -0.13307,1.30116 h -2.08481 q -0.3105,1.1533 -0.68015,2.27703 -0.36965,1.10894 -0.79844,2.17353 0.99066,-0.38444 1.81867,-0.76887 -0.11829,-0.50272 -0.28094,-1.00544 -0.14786,-0.51751 -0.3105,-1.02023 l 1.10894,-0.47315 q 0.35486,1.00544 0.60622,1.9961 0.25136,0.99065 0.38444,1.83345 0.57665,-1.40466 0.94629,-3.13461 0.38444,-1.72995 0.60623,-3.87391 l 0.0444,-0.35486 h -1.22723 l 0.13308,-1.27159 h 1.22723 l 0.29572,-2.75017 h 1.24201 l -0.28093,2.75017 h 1.3603 q 0.48794,0 0.75408,0.32529 0.28093,0.32529 0.22179,0.85759 l -0.88715,8.26531 q -0.1035,1.10895 -0.51751,1.62645 -0.39922,0.51751 -1.10894,0.51751 -0.72451,0 -1.10894,-0.56186 -0.36965,-0.54708 -0.45837,-1.50817 l 1.03502,-0.16264 q 0.0739,0.44358 0.17743,0.72451 0.1035,0.28093 0.28093,0.28093 0.19222,0 0.28093,-0.22179 0.1035,-0.22179 0.17743,-0.88715 l 0.85758,-7.98439 h -1.19765 l -0.0444,0.38443 q -0.32529,3.07547 -1.02023,5.63343 -0.69494,2.55796 -1.90738,4.36184 z m 0.50272,-13.42559 -0.13307,1.30116 h -4.15484 l 0.13307,-1.30116 z"
       id="text7"
       style="font-style:oblique;font-size:14.7859px;line-height:2.5;font-family:'Smiley Sans';-inkscape-font-specification:'Smiley Sans Oblique';stroke-width:0.465699;stroke-opacity:0.451737"
       aria-label="星栈跃动" /></g></svg>
