<?xml version="1.0" encoding="UTF-8" standalone="no"?>
<!-- Created with Inkscape (http://www.inkscape.org/) -->

<svg
   width="210mm"
   height="297mm"
   viewBox="0 0 210 297"
   version="1.1"
   id="svg1"
   xml:space="preserve"
   inkscape:version="1.4 (86a8ad7, 2024-10-11)"
   sodipodi:docname="SO星栈跃动.svg"
   xmlns:inkscape="http://www.inkscape.org/namespaces/inkscape"
   xmlns:sodipodi="http://sodipodi.sourceforge.net/DTD/sodipodi-0.dtd"
   xmlns="http://www.w3.org/2000/svg"
   xmlns:svg="http://www.w3.org/2000/svg"><sodipodi:namedview
     id="namedview1"
     pagecolor="#505050"
     bordercolor="#eeeeee"
     borderopacity="1"
     inkscape:showpageshadow="0"
     inkscape:pageopacity="0"
     inkscape:pagecheckerboard="0"
     inkscape:deskcolor="#505050"
     inkscape:document-units="mm"
     inkscape:zoom="1.9578168"
     inkscape:cx="434.41246"
     inkscape:cy="544.22866"
     inkscape:window-width="1920"
     inkscape:window-height="991"
     inkscape:window-x="-9"
     inkscape:window-y="-9"
     inkscape:window-maximized="1"
     inkscape:current-layer="layer1" /><defs
     id="defs1"><rect
       x="163.44737"
       y="737.55625"
       width="477.06201"
       height="117.47779"
       id="rect15" /><rect
       x="159.36118"
       y="739.59934"
       width="504.64375"
       height="108.28388"
       id="rect14" /></defs><g
     inkscape:label="图层 1"
     inkscape:groupmode="layer"
     id="layer1"><g
       inkscape:label="图层 1"
       id="layer1-8"
       transform="translate(-15.589658,10.665673)"><path
         style="fill:#0066cc;fill-opacity:1;stroke-width:0.440038"
         d="m 60.927949,145.53366 c -2.049101,-1.04564 -5.873671,-2.99487 -8.499061,-4.33163 -2.625397,-1.33677 -5.926064,-3.02032 -7.334805,-3.74123 l -2.561366,-1.31083 -0.03314,-3.80076 c -0.01817,-2.09047 0.0084,-3.78271 0.0582,-3.76067 0.206337,0.0908 13.954843,7.06213 15.459386,7.83898 0.896479,0.46279 2.797399,1.43843 4.224274,2.16799 l 2.594317,1.32635 1.305934,-0.67077 c 0.718269,-0.36883 4.842359,-2.46003 9.164671,-4.64705 4.322307,-2.18694 8.762459,-4.43447 9.867054,-4.9945 l 2.008354,-1.01818 -4.51e-4,3.80248 -4.49e-4,3.80247 -4.685476,2.35477 c -2.57703,1.29503 -7.514629,3.79805 -10.972483,5.56219 -3.457839,1.76405 -6.417947,3.23314 -6.578038,3.26455 -0.215254,0.0423 -1.261377,-0.43805 -4.016672,-1.84416 z M 57.376961,132.4909 c -10.380027,-5.27712 -14.33683,-7.3048 -14.643308,-7.50427 l -0.264779,-0.17225 0.0093,-3.71039 c 0.0051,-2.04071 0.03914,-3.71036 0.0762,-3.71036 0.03708,0 4.994917,2.50167 11.017547,5.55927 6.022637,3.05765 11.01919,5.5763 11.103465,5.59692 0.122804,0.0299 0.153216,0.79853 0.153216,3.87125 0,2.10836 -0.0131,3.83239 -0.02905,3.83092 -0.01596,-0.003 -3.355967,-1.69381 -7.422123,-3.76109 z m 1.919571,-10.26116 c -3.072829,-1.56018 -8.101757,-4.11751 -11.175385,-5.68295 l -5.58843,-2.84628 -0.03068,-3.79555 -0.03068,-3.79553 4.629499,2.34004 c 2.54622,1.28702 7.548003,3.82596 11.115061,5.6421 3.567054,1.81613 6.541326,3.30206 6.609488,3.30206 0.06821,0 2.336416,-1.1196 5.040555,-2.488 12.765328,-6.45968 17.191175,-8.68886 17.251008,-8.68886 0.03544,0 0.06494,1.70271 0.06494,3.78383 0,2.08111 -0.03927,3.78383 -0.08732,3.78384 -0.139056,3e-5 -19.093456,9.60211 -21.2782,10.77932 l -0.93286,0.50264 z m 4.250976,-9.03826 c -0.608321,-0.32363 -3.227892,-1.66515 -5.821271,-2.98117 -10.506037,-5.33126 -10.129004,-5.11353 -10.129004,-5.84926 0,-0.67019 0.429235,-0.96335 4.169546,-2.84769 1.965014,-0.98996 4.856329,-2.459551 6.42517,-3.265754 1.568826,-0.806191 3.708801,-1.897029 4.755487,-2.424062 l 1.903071,-0.958254 1.938964,1.005217 c 1.066433,0.552858 4.794304,2.456929 8.284156,4.231263 3.489822,1.77432 6.464702,3.34187 6.610784,3.48342 0.146039,0.14155 0.296023,0.44532 0.333314,0.67504 0.124224,0.76544 -0.183924,0.96365 -6.303744,4.05468 -3.073648,1.55244 -6.746282,3.41819 -8.16144,4.14608 -1.41515,0.72789 -2.64635,1.32244 -2.735998,1.32121 -0.08965,-0.002 -0.660711,-0.26704 -1.269035,-0.59072 z m 4.199694,-7.27462 c 1.59624,-0.80528 2.902262,-1.50772 2.902262,-1.56096 0,-0.0796 -2.917073,-1.6206 -5.25953,-2.7784 l -0.552957,-0.27331 -2.91474,1.49578 c -1.603112,0.82268 -2.913594,1.52198 -2.912189,1.55399 0.0022,0.0476 5.674412,3.00413 5.797421,3.02171 0.02053,0.003 1.343501,-0.65352 2.939733,-1.45881 z"
         id="path9" /><path
         style="fill:none;stroke-width:0.264583"
         id="path7"
         d="m 44.123739,120.3063 c 1.690531,1.45255 3.221921,3.0803 4.660059,4.77998 0.555635,0.74881 1.335759,1.51112 1.630656,2.42153 0,0 3.545192,1.69229 3.545192,1.69229 v 0 c -0.08228,-0.36542 -0.222264,-0.6131 -0.432748,-0.92891 -0.418975,-0.62862 -0.909084,-1.20643 -1.406503,-1.77332 -1.414855,-1.62105 -2.876177,-3.20111 -4.403162,-4.71759 z" /><path
         style="fill:none;stroke-width:0.264583"
         id="path8"
         d="m 40.758022,130.61301 c 0.125563,0.14556 0.25985,0.28402 0.37669,0.43667 1.982256,2.58967 3.38233,5.5808 4.844582,8.47794 0.849519,1.64794 1.651106,3.32052 2.509297,4.96404 0.36035,0.6901 0.687785,1.30929 1.109248,1.95768 0.138117,0.21249 0.293991,0.41289 0.440989,0.61934 0.132148,0.14221 0.255034,0.29362 0.396446,0.42662 0.10477,0.0985 0.21286,0.19831 0.339839,0.26586 1.221549,0.64983 2.418093,1.36045 3.699327,1.88286 0.133644,0.0545 0.286721,-0.10608 0.370986,-0.22325 0.252857,-0.35161 0.406955,-1.13801 0.505296,-1.52817 0.279892,-2.21739 -0.14454,-4.39981 -0.785985,-6.52022 -0.149884,-0.49546 -0.327208,-0.9822 -0.49081,-1.4733 -0.955133,-2.68335 -2.08725,-5.30316 -3.334898,-7.8627 -0.755449,-1.45207 -1.504736,-2.91354 -2.425153,-4.27 -1.01007,-1.36283 -2.266103,-1.75488 -4.13114,-2.49506 -0.175136,-0.0695 -0.330123,0.18175 -0.494697,0.27351 -0.233013,0.12991 -0.46537,0.261 -0.698055,0.39149 -1.00878,0.64216 -2.053101,1.2621 -2.96862,2.03806 -0.704424,0.59704 -1.588947,1.51813 -2.161051,2.23323 -0.351237,0.43903 -0.65759,0.91216 -0.986385,1.36824 -0.284046,0.49402 -0.599016,0.9715 -0.852135,1.48206 -0.261999,0.52846 -0.479962,1.07827 -0.690396,1.6293 -0.42295,1.10754 -0.747078,2.14214 -0.914726,3.32138 -0.157622,1.10871 -0.180996,2.76443 -0.216926,3.88708 0.07502,2.55826 0.599919,5.08039 1.437568,7.49485 0.369195,1.06417 0.634532,1.60539 1.080389,2.60117 0.538015,0.9209 0.992426,2.04915 1.990942,2.57915 3.95006,2.09666 2.529705,2.4928 4.50374,1.66413 0.207016,-0.16694 0.444,-0.30238 0.621046,-0.50083 1.643047,-1.8416 0.92606,-5.02719 0.559136,-7.17408 -0.657913,-2.78039 -0.31301,-1.42018 -1.030195,-4.08177 0,0 -2.969135,-1.412 -2.969135,-1.412 v 0 c 0.771025,2.6473 0.420978,1.29935 1.045046,4.04515 0.204721,1.48564 0.376433,2.17835 0.308747,3.64221 -0.04877,1.05472 -0.27229,2.21319 -1.072266,2.97803 -0.166743,0.15943 -0.385815,0.25303 -0.578723,0.37955 -1.6564,0.30643 -0.620488,-0.0208 2.136841,1.81698 0.181232,0.1208 -0.407292,-0.16446 -0.586081,-0.28885 -0.77388,-0.53838 -1.183328,-1.4291 -1.699752,-2.18157 -0.203893,-0.39252 -0.422648,-0.77767 -0.611675,-1.17757 -1.312584,-2.7768 -2.087517,-5.78763 -2.167651,-8.86284 0.02952,-1.60044 -0.01479,-2.21315 0.239088,-3.80368 0.266467,-1.66943 0.806384,-3.34165 1.567254,-4.85118 0.250854,-0.49769 0.559646,-0.96398 0.83947,-1.44597 0.330599,-0.44093 0.638363,-0.89994 0.991793,-1.32278 1.438042,-1.72045 3.274531,-3.04005 5.286452,-4.00808 0.253468,-0.10109 0.4993,-0.22397 0.760407,-0.30328 0.156056,-0.0474 0.616125,0.0205 0.483576,-0.0745 -1.001233,-0.71786 -2.129737,-1.23914 -3.190272,-1.86608 -0.05916,-0.035 0.127511,0.0531 0.185574,0.0898 0.201705,0.12775 0.281707,0.23466 0.45344,0.41153 1.072685,1.33442 1.925413,2.8261 2.730749,4.33275 1.277612,2.55426 2.453582,5.16303 3.424584,7.8506 0.706048,2.1428 1.437471,4.39712 1.287142,6.68709 -0.02207,0.33627 -0.09425,0.66737 -0.14138,1.00105 -0.07691,0.24546 -0.232312,0.92408 -0.473853,1.16152 -0.0618,0.0608 -0.324318,0.0117 -0.252814,0.0607 0.964207,0.66033 2.00365,1.20358 2.997247,1.8188 0.133279,0.0825 -0.28666,-0.13098 -0.415512,-0.22025 -0.170807,-0.11834 -0.319146,-0.26621 -0.478716,-0.39931 -0.176366,-0.208 -0.363691,-0.40718 -0.529093,-0.62399 -0.519522,-0.68101 -0.859737,-1.25816 -1.298828,-2.00917 -0.971185,-1.6611 -1.865514,-3.3656 -2.761777,-5.0677 -0.354306,-0.70261 -0.713785,-1.40262 -1.062916,-2.10781 -0.193259,-0.39036 -1.629685,-3.37044 -1.896504,-3.87946 -0.233542,-0.44554 -0.501047,-0.87248 -0.744918,-1.31245 -0.180057,-0.32484 -0.340786,-0.66034 -0.526783,-0.98182 -0.08035,-0.13888 -0.180877,-0.26506 -0.271317,-0.39759 z" /><text
         xml:space="preserve"
         transform="scale(0.26458333)"
         id="text14"
         style="text-align:start;writing-mode:lr-tb;direction:ltr;white-space:pre;shape-inside:url(#rect14);fill:#000000;fill-opacity:1" /><text
         xml:space="preserve"
         transform="matrix(0.26458333,0,0,0.26458333,1.0811362,-13.784487)"
         id="text15"
         style="font-style:normal;font-variant:normal;font-weight:900;font-stretch:normal;font-size:64px;font-family:'Alibaba PuHuiTi 3.0';-inkscape-font-specification:'Alibaba PuHuiTi 3.0 Heavy';text-align:center;writing-mode:lr-tb;direction:ltr;white-space:pre;shape-inside:url(#rect15);shape-padding:13.2801;fill:#000000;fill-opacity:1"
         x="21.743999"
         y="0" /></g><path
       d="m 83.729038,141.23265 q -1.126452,0 -2.155797,-0.13595 -1.009923,-0.13595 -1.728523,-0.31074 v -3.3211 q 0.330167,0.0971 0.776864,0.19422 0.446697,0.0971 0.932237,0.17479 0.504962,0.0583 1.009923,0.0971 0.504962,0.0388 0.951659,0.0388 0.602069,0 0.951658,-0.0583 0.369011,-0.0583 0.563227,-0.1748 0.194216,-0.13595 0.25248,-0.34958 0.05827,-0.21364 0.05827,-0.52439 0,-0.21363 -0.07769,-0.38843 -0.05827,-0.17479 -0.271903,-0.31074 -0.194216,-0.15538 -0.582648,-0.29133 -0.36901,-0.15537 -1.009923,-0.31074 -1.107031,-0.25249 -1.82563,-0.56323 -0.699178,-0.33017 -1.107031,-0.79629 -0.407854,-0.46611 -0.563227,-1.08761 -0.155373,-0.64091 -0.155373,-1.55372 0,-1.18472 0.369011,-1.98101 0.36901,-0.8157 1.048766,-1.30124 0.699178,-0.50497 1.670258,-0.69918 0.990501,-0.21364 2.194641,-0.21364 1.262404,0 2.097532,0.15537 0.835129,0.13595 1.398356,0.33017 v 3.08803 q -0.213638,-0.0777 -0.621492,-0.15537 -0.388432,-0.0777 -0.85455,-0.13595 -0.466118,-0.0777 -0.951658,-0.11653 -0.48554,-0.0583 -0.893394,-0.0583 -0.932237,0 -1.34009,0.23306 -0.388432,0.21363 -0.388432,0.69917 0,0.23306 0.05826,0.38844 0.07769,0.15537 0.291324,0.29132 0.213638,0.11653 0.60207,0.23306 0.388432,0.11653 1.009923,0.2719 1.262404,0.33017 2.000425,0.7186 0.757442,0.38843 1.145874,0.89339 0.388432,0.50497 0.504962,1.18472 0.11653,0.67976 0.11653,1.59257 0,1.00993 -0.271903,1.80621 -0.271902,0.77687 -0.912815,1.32067 -0.621491,0.5438 -1.670258,0.83513 -1.048766,0.29132 -2.621916,0.29132 z M 100.10143,130.9392 h -3.223988 v 10.09924 H 93.031965 V 130.9392 h -3.204564 v -3.37935 h 10.274029 z m 8.798,7.26368 h -5.04962 l -0.95166,2.83556 h -4.039689 l 4.952509,-13.47859 h 5.22441 l 4.91366,13.47859 h -4.11737 z m -1.00992,-3.10745 -1.37894,-4.21449 h -0.23306 l -1.39835,4.21449 z m 13.49798,6.13722 q -1.55372,0 -2.81613,-0.29132 -1.24298,-0.29133 -2.13637,-1.04877 -0.87398,-0.77686 -1.35952,-2.11695 -0.48554,-1.35951 -0.48554,-3.47647 0,-1.94216 0.46612,-3.26283 0.46612,-1.34009 1.32067,-2.15579 0.87397,-0.81571 2.09753,-1.1653 1.22356,-0.34959 2.73845,-0.34959 0.9905,0 1.84505,0.13595 0.85455,0.11653 1.47604,0.34959 v 3.28225 q -1.35951,-0.50496 -3.01035,-0.50496 -0.73802,0 -1.24298,0.19422 -0.50496,0.17479 -0.83513,0.60206 -0.33016,0.42728 -0.48554,1.14588 -0.13595,0.69918 -0.13595,1.72852 0,1.08761 0.15538,1.78679 0.17479,0.69918 0.50496,1.10703 0.34959,0.38843 0.85455,0.5438 0.52438,0.15538 1.24298,0.15538 0.75744,0 1.53431,-0.0971 0.79628,-0.11653 1.57315,-0.38843 v 3.28225 q -0.6215,0.23306 -1.49547,0.38843 -0.87397,0.15537 -1.80621,0.15537 z m 17.61541,-0.19421 h -4.60292 l -3.30167,-5.59342 h -0.52438 v 5.59342 h -3.8649 v -13.47859 h 3.8649 v 4.8554 h 0.52438 l 3.26283,-4.8554 h 4.44755 l -4.46697,6.23433 z m 6.54507,0.19421 q -1.49546,0 -2.68018,-0.29132 -1.18472,-0.31075 -2.00042,-1.08761 -0.81571,-0.77686 -1.24299,-2.11696 -0.42727,-1.35951 -0.42727,-3.43762 0,-2.07811 0.42727,-3.4182 0.42728,-1.34009 1.24299,-2.11695 0.8157,-0.79629 2.00042,-1.08761 1.18472,-0.31075 2.68018,-0.31075 1.51489,0 2.68018,0.31075 1.18472,0.29132 2.00043,1.08761 0.8157,0.77686 1.24298,2.11695 0.42727,1.34009 0.42727,3.4182 0,2.07811 -0.42727,3.43762 -0.42728,1.3401 -1.24298,2.11696 -0.81571,0.77686 -2.00043,1.08761 -1.16529,0.29132 -2.68018,0.29132 z m 0,-3.18514 q 0.69918,0 1.12645,-0.17479 0.4467,-0.1748 0.69918,-0.60207 0.2719,-0.4467 0.36901,-1.1653 0.0971,-0.7186 0.0971,-1.80621 0,-1.10703 -0.0971,-1.82563 -0.0971,-0.73802 -0.36901,-1.16529 -0.25248,-0.4467 -0.69918,-0.6215 -0.42727,-0.19421 -1.12645,-0.19421 -0.69918,0 -1.14587,0.19421 -0.42728,0.1748 -0.67976,0.6215 -0.25248,0.42727 -0.34959,1.16529 -0.0971,0.7186 -0.0971,1.82563 0,1.08761 0.0971,1.80621 0.0971,0.7186 0.34959,1.1653 0.25248,0.42727 0.67976,0.60207 0.44669,0.17479 1.14587,0.17479 z m 6.91408,-10.48766 h 4.31159 l 2.83556,9.36121 h 0.11653 l 2.99092,-9.36121 h 4.07854 l -4.83598,13.47859 h -4.79713 z m 22.97576,10.64303 h -5.04962 l -0.95166,2.83556 h -4.03969 l 4.95251,-13.47859 h 5.22441 l 4.91366,13.47859 h -4.11737 z m -1.00992,-3.10745 -1.37894,-4.21449 h -0.23306 l -1.39835,4.21449 z m 15.07114,-4.15623 h -3.22399 v 10.09924 h -3.84548 V 130.9392 H 179.225 v -3.37935 h 10.27403 z m 10.56536,6.77814 v 3.3211 h -8.91451 v -13.47859 h 8.79799 v 3.34051 h -4.93309 v 1.7091 h 4.52523 v 3.20457 h -4.52523 v 1.90331 z"
       id="text1"
       style="font-weight:900;font-size:19.4216px;font-family:'Alibaba PuHuiTi 3.0';-inkscape-font-specification:'Alibaba PuHuiTi 3.0 Heavy';text-align:center;text-anchor:middle;stroke-width:0.455222"
       aria-label="STACKOVATE" /></g></svg>
