<?xml version="1.0" encoding="UTF-8" standalone="no"?>
<!-- Created with Inkscape (http://www.inkscape.org/) -->

<svg
   width="79.181213mm"
   height="30.097906mm"
   viewBox="0 0 79.181213 30.097906"
   version="1.1"
   id="svg1"
   inkscape:version="1.4.3 (0d15f75, 2025-12-25)"
   sodipodi:docname="YesterdayLOGO.svg"
   xmlns:inkscape="http://www.inkscape.org/namespaces/inkscape"
   xmlns:sodipodi="http://sodipodi.sourceforge.net/DTD/sodipodi-0.dtd"
   xmlns="http://www.w3.org/2000/svg"
   xmlns:svg="http://www.w3.org/2000/svg">
  <sodipodi:namedview
     id="namedview1"
     pagecolor="#505050"
     bordercolor="#eeeeee"
     borderopacity="1"
     inkscape:showpageshadow="0"
     inkscape:pageopacity="0"
     inkscape:pagecheckerboard="0"
     inkscape:deskcolor="#505050"
     inkscape:document-units="mm"
     inkscape:zoom="2.0792508"
     inkscape:cx="-54.346497"
     inkscape:cy="18.035342"
     inkscape:window-width="2560"
     inkscape:window-height="1369"
     inkscape:window-x="-8"
     inkscape:window-y="-8"
     inkscape:window-maximized="1"
     inkscape:current-layer="layer1" />
  <defs
     id="defs1">
    <rect
       x="167.36797"
       y="442.46707"
       width="652.15796"
       height="490.56131"
       id="rect1" />
  </defs>
  <g
     inkscape:label="图层 1"
     inkscape:groupmode="layer"
     id="layer1"
     transform="translate(-42.605152,-132.4038)">
    <path
       id="text1"
       style="font-weight:bold;font-size:74.6667px;line-height:3;font-family:Parisienne;-inkscape-font-specification:'Parisienne Bold';white-space:pre;fill:#ff7f2a;stroke-width:0.377953;stroke-opacity:0.451737"
       d="M 161.02735,500.42383 V 614.1797 H 460.29493 V 500.42383 Z m 40.46484,14.02344 c 2.64931,0 5.04275,0.34094 7.18164,1.02149 2.16319,0.68055 3.99891,1.68858 5.50586,3.02539 1.53125,1.33681 2.71072,2.97742 3.53711,4.92187 0.82639,1.94445 1.23828,4.19401 1.23828,6.7461 0,2.60069 -0.36458,5.0434 -1.09375,7.32812 -0.72917,2.26042 -1.65148,4.375 -2.76953,6.34375 -1.09375,1.94444 -2.28603,3.75455 -3.57422,5.43164 -1.26389,1.67709 -2.4542,3.22114 -3.57226,4.63086 -1.09375,1.40973 -2.00521,2.70942 -2.73438,3.90039 -0.72917,1.16667 -1.09375,2.23677 -1.09375,3.20899 0,0.58333 0.0858,1.14106 0.25586,1.67578 0.19445,0.53473 0.4733,1.00868 0.83789,1.42187 0.38889,0.38889 0.86285,0.70616 1.42188,0.94922 0.55903,0.24305 1.21528,0.36328 1.96875,0.36328 1.38542,0 2.92946,-0.4247 4.63085,-1.27539 1.70139,-0.875 3.46225,-2.05447 5.28516,-3.53711 1.84723,-1.50695 3.71941,-3.26779 5.61524,-5.28515 1.92014,-2.01737 3.79231,-4.18121 5.61523,-6.49024 1.40972,-2.47917 2.86805,-4.94553 4.375,-7.40039 1.53125,-2.45487 3.12261,-4.86111 4.77539,-7.21875 1.67709,-2.38195 3.43989,-4.70443 5.28711,-6.96484 1.87153,-2.26042 3.85114,-4.41146 5.94141,-6.45313 l 1.41601,0.99805 c -3.18403,3.84028 -6.27712,7.995 -8.85351,12.12695 -2.55209,4.10764 -4.95834,8.24024 -7.21875,12.39649 -2.26042,4.13195 -4.43511,8.21527 -6.52539,12.25 -2.06597,4.01042 -4.20421,7.81489 -6.41602,11.41211 -2.21181,3.59723 -4.57075,6.92578 -7.07422,9.98828 -2.47917,3.0625 -5.26085,5.7003 -8.34766,7.91211 -3.0625,2.23611 -6.48958,3.9733 -10.28125,5.21289 -3.79167,1.26389 -8.10655,1.89648 -12.94336,1.89648 -2.81945,0 -5.57747,-0.34093 -8.27539,-1.02148 -2.67361,-0.68055 -5.0562,-1.72504 -7.14648,-3.13477 -2.09028,-1.40972 -3.76736,-3.17252 -5.03125,-5.28711 -1.26389,-2.11459 -1.89648,-4.6174 -1.89648,-7.50976 0,-2.16319 0.31726,-4.10829 0.94921,-5.83399 0.60764,-1.72569 1.43338,-3.25694 2.47852,-4.59375 1.02083,-1.33681 2.21116,-2.49067 3.57227,-3.46289 1.36111,-0.97223 2.78298,-1.76151 4.26562,-2.36914 1.48264,-0.63195 2.97743,-1.09505 4.48438,-1.38672 1.53125,-0.29167 2.97873,-0.4375 4.33984,-0.4375 1.02083,0 1.93228,0.0256 2.73437,0.0742 0.80208,0.0243 1.5421,0.0844 2.22266,0.18164 0.70486,0.0972 1.37391,0.21941 2.00586,0.36524 0.63194,0.12153 1.30099,0.29101 2.00586,0.50976 l -0.62109,1.78711 c -0.72917,-0.21875 -1.39628,-0.39019 -2.00391,-0.51172 -0.60764,-0.14583 -1.21658,-0.2552 -1.82422,-0.32812 -0.58333,-0.0729 -1.17752,-0.12022 -1.78516,-0.14453 -0.60764,-0.0486 -1.26389,-0.0742 -1.96875,-0.0742 -2.30903,0 -4.48567,0.39019 -6.52734,1.16797 -2.04167,0.77778 -3.82812,1.87153 -5.35937,3.28125 -1.50695,1.40973 -2.69727,3.08681 -3.57227,5.03125 -0.89931,1.96875 -1.34961,4.11979 -1.34961,6.45312 0,2.43056 0.48676,4.5816 1.45898,6.45313 0.94792,1.89583 2.26042,3.4872 3.9375,4.77539 1.67709,1.2882 3.65863,2.25976 5.94336,2.91601 2.28472,0.68056 4.76389,1.02149 7.4375,1.02149 3.35417,0 6.44032,-0.4503 9.25977,-1.34961 2.81945,-0.875 5.43164,-2.11458 7.83789,-3.71875 2.43055,-1.60417 4.69097,-3.51085 6.78125,-5.72266 2.09028,-2.2118 4.08464,-4.64366 5.98047,-7.29297 1.92014,-2.64931 3.76671,-5.48025 5.54102,-8.49414 1.77431,-3.01389 3.56076,-6.11284 5.35937,-9.29687 -1.53125,1.62847 -3.02604,3.08681 -4.48437,4.375 -1.45833,1.26389 -2.90387,2.34484 -4.3379,3.24414 -1.43403,0.87501 -2.8687,1.54406 -4.30273,2.00586 -1.40973,0.46181 -2.85526,0.69336 -4.33789,0.69336 -0.87501,0 -1.78647,-0.12219 -2.73438,-0.36524 -0.92361,-0.24305 -1.76215,-0.64409 -2.51562,-1.20312 -0.75347,-0.58333 -1.37327,-1.3253 -1.85938,-2.22461 -0.48611,-0.92361 -0.73046,-2.04102 -0.73046,-3.35352 0,-0.8507 0.15864,-1.7385 0.47461,-2.66211 0.34028,-0.94792 0.8507,-1.96875 1.53125,-3.0625 0.68055,-1.09375 1.51909,-2.27126 2.51562,-3.53515 1.02083,-1.2882 2.21116,-2.71008 3.57227,-4.26563 1.62847,-1.84723 2.99023,-3.61003 4.08398,-5.28711 1.09375,-1.67709 1.98155,-3.25759 2.66211,-4.74023 0.68055,-1.48264 1.16536,-2.86806 1.45703,-4.15625 0.29167,-1.3125 0.4375,-2.52647 0.4375,-3.64453 0,-2.21181 -0.41189,-4.10764 -1.23828,-5.6875 -0.80209,-1.57986 -1.89584,-2.86871 -3.28125,-3.86524 -1.38542,-0.99653 -2.98958,-1.7257 -4.8125,-2.1875 -1.82291,-0.48611 -3.74436,-0.72851 -5.76172,-0.72851 -2.11459,0 -4.24002,0.20595 -6.37891,0.61914 -2.13889,0.38889 -4.20615,0.97222 -6.19921,1.75 -1.99305,0.77778 -3.86329,1.7385 -5.61329,2.88086 -1.72569,1.14236 -3.23328,2.45486 -4.52148,3.9375 -1.28819,1.45833 -2.30903,3.08615 -3.0625,4.88476 -0.72917,1.77431 -1.09375,3.7066 -1.09375,5.79688 0,1.65278 0.27886,3.16037 0.83789,4.52148 0.55903,1.36111 1.35026,2.53863 2.37109,3.53516 1.04513,0.97222 2.30838,1.727 3.79102,2.26172 1.48264,0.53473 3.15972,0.80078 5.03125,0.80078 1.23958,0 2.51562,-0.14583 3.82812,-0.4375 1.3125,-0.29167 2.60135,-0.70355 3.86524,-1.23828 1.28819,-0.55903 2.53863,-1.24088 3.75391,-2.04297 1.23958,-0.80208 2.40625,-1.72439 3.5,-2.76953 l 1.13086,1.20312 c -1.28819,1.40972 -2.66082,2.6365 -4.11915,3.68164 -1.45834,1.02083 -2.95312,1.87219 -4.48437,2.55274 -1.53125,0.68056 -3.07531,1.19098 -4.63086,1.53125 -1.55556,0.31597 -3.074,0.47265 -4.55664,0.47265 -2.01736,0 -3.91319,-0.26606 -5.6875,-0.80078 -1.75,-0.55903 -3.29405,-1.38672 -4.63086,-2.48047 -1.3125,-1.11805 -2.35699,-2.50347 -3.13477,-4.15625 -0.75347,-1.65278 -1.13086,-3.58506 -1.13086,-5.79687 0,-2.47917 0.46116,-4.76324 1.38477,-6.85352 0.94792,-2.09028 2.21311,-3.97331 3.79297,-5.65039 1.57986,-1.67709 3.41363,-3.14822 5.50391,-4.41211 2.09028,-1.26389 4.29057,-2.32118 6.5996,-3.17187 2.30903,-0.85069 4.65517,-1.4833 7.03711,-1.89649 2.38195,-0.4375 4.66602,-0.65625 6.85352,-0.65625 z m 192.46289,3.9375 1.56836,1.02149 c -0.26736,0.38889 -0.70486,1.03234 -1.3125,1.93164 -0.60764,0.89931 -1.31315,1.96939 -2.11523,3.20898 -0.80209,1.23959 -1.67709,2.6122 -2.625,4.11914 -0.92361,1.50695 -1.85872,3.0638 -2.80664,4.66797 -0.92361,1.60417 -1.83507,3.23199 -2.73438,4.88477 -0.875,1.62847 -1.65342,3.19617 -2.33398,4.70312 -1.06944,2.33333 -1.95529,4.42427 -2.66016,6.27149 -0.68055,1.82292 -1.22743,3.45073 -1.64062,4.88476 -0.38889,1.43403 -0.66972,2.68642 -0.83985,3.75586 -0.14583,1.04514 -0.21875,1.9438 -0.21875,2.69727 0,1.38542 0.20791,2.34614 0.6211,2.88086 0.4375,0.53472 1.02083,0.80078 1.75,0.80078 0.75347,0 1.46984,-0.19314 2.15039,-0.58203 0.70486,-0.38889 1.37391,-0.88846 2.00586,-1.4961 0.65625,-0.60764 1.26323,-1.30034 1.82226,-2.07812 0.58333,-0.77777 1.11741,-1.55425 1.60352,-2.33203 0.51041,-0.77778 0.97353,-1.51975 1.38672,-2.22461 0.41319,-0.70486 0.77778,-1.301 1.09375,-1.78711 l 0.0156,0.0117 c 0.49417,-0.82571 0.99219,-1.65385 1.66016,-2.52735 1.33681,-1.77431 2.72222,-3.2691 4.15625,-4.48437 1.45833,-1.21528 2.8802,-2.18685 4.26562,-2.91602 1.40972,-0.75347 2.74783,-1.28754 4.01172,-1.60351 1.26389,-0.31597 2.3941,-0.47461 3.39063,-0.47461 2.23611,0 3.92404,0.37739 5.0664,1.13086 1.14236,0.72917 1.83507,1.85937 2.07813,3.39062 0.48611,-0.60764 0.99652,-1.21658 1.53125,-1.82422 0.53472,-0.60764 1.08159,-1.22742 1.64062,-1.85937 l 1.16797,0.51172 c -0.31597,0.63195 -0.76628,1.45768 -1.34961,2.47851 -0.55903,1.02083 -1.16601,2.15104 -1.82226,3.39063 -0.65625,1.21527 -1.32531,2.49131 -2.00586,3.82812 -0.65625,1.33681 -1.26324,2.64931 -1.82227,3.9375 -0.53473,1.26389 -0.98503,2.46702 -1.34961,3.60938 -0.34028,1.11806 -0.50976,2.06598 -0.50976,2.84375 0,0.77778 0.14583,1.2882 0.4375,1.53125 0.31597,0.21875 0.71701,0.32812 1.20312,0.32812 0.70486,0 1.42122,-0.20595 2.15039,-0.61914 0.75347,-0.4132 1.48264,-0.94922 2.1875,-1.60547 0.72917,-0.65625 1.43468,-1.39626 2.11524,-2.22265 0.68055,-0.82639 1.3112,-1.65408 1.89453,-2.48047 0.60764,-0.85069 1.15451,-1.65278 1.64062,-2.40625 0.47377,-0.75803 0.8796,-1.40058 1.21485,-1.92774 0.54968,-1.28617 1.21394,-2.53945 1.99414,-3.75976 0.97222,-1.50695 2.04231,-2.92882 3.20898,-4.26563 1.19097,-1.33681 2.34484,-2.49067 3.46289,-3.46289 l 1.56836,1.09375 c -0.29167,0.41319 -0.69271,0.98372 -1.20312,1.71289 -0.51042,0.72917 -1.0573,1.58051 -1.64063,2.55274 -0.58333,0.94791 -1.17947,1.98156 -1.78711,3.09961 -0.58333,1.11806 -1.1174,2.25911 -1.60351,3.42578 -0.48611,1.16667 -0.88716,2.33333 -1.20313,3.5 -0.29167,1.16667 -0.4375,2.26042 -0.4375,3.28125 0,0.48611 0.0365,0.96006 0.10938,1.42187 0.0972,0.4375 0.24306,0.82769 0.4375,1.16797 0.21875,0.34027 0.49761,0.60633 0.83789,0.80078 0.34027,0.19445 0.77777,0.29297 1.3125,0.29297 0.85069,0 1.77495,-0.2552 2.77148,-0.76562 1.02083,-0.53472 2.06532,-1.25304 3.13477,-2.15235 1.09375,-0.92361 2.20031,-1.99175 3.31836,-3.20703 1.14236,-1.21527 2.25976,-2.51692 3.35351,-3.90234 1.09375,-1.38542 2.15105,-2.8073 3.17188,-4.26563 1.02084,-1.48264 1.96875,-2.94097 2.84375,-4.375 0.77777,-1.28819 1.5562,-2.57509 2.33398,-3.86328 0.77778,-1.31251 1.55426,-2.58854 2.33203,-3.82812 l 1.71485,0.875 c -0.0243,0.0486 -0.25589,0.50975 -0.69336,1.38476 -0.41319,0.85069 -0.97287,2.01736 -1.67774,3.5 -0.70486,1.45833 -1.5306,3.15907 -2.47851,5.10352 -0.92361,1.92014 -1.90799,3.97461 -2.95313,6.16211 -1.04514,2.16319 -2.11523,4.38714 -3.20898,6.67187 -1.06945,2.28472 -2.11394,4.50868 -3.13477,6.67188 3.42708,-1.89584 6.52604,-4.14345 9.29688,-6.74414 2.79514,-2.60069 5.18859,-5.32422 7.18164,-8.16797 l 1.34961,1.02148 c -2.11459,3.23264 -4.73959,6.22222 -7.875,8.96875 -3.13542,2.72222 -6.91428,5.33442 -11.33789,7.83789 -2.01736,4.32639 -3.99891,8.27669 -5.94336,11.84961 -1.92014,3.57291 -3.85243,6.63541 -5.79688,9.1875 -1.92014,2.55209 -3.83962,4.52084 -5.75976,5.90625 -1.94445,1.40973 -3.9132,2.11524 -5.90625,2.11524 -1.3125,0 -2.40625,-0.4375 -3.28125,-1.3125 -0.875,-0.875 -1.3125,-2.12739 -1.3125,-3.75586 0,-1.36111 0.30251,-2.75933 0.91015,-4.19336 0.60763,-1.43403 1.44618,-2.87956 2.51563,-4.33789 1.06945,-1.43403 2.34548,-2.86871 3.82812,-4.30274 1.45833,-1.40973 3.0625,-2.76953 4.8125,-4.08203 1.72569,-1.3125 3.53777,-2.56489 5.4336,-3.75586 1.92014,-1.19097 3.86328,-2.28472 5.83203,-3.28125 0.51042,-1.06945 1.05729,-2.19965 1.64062,-3.39062 0.58333,-1.16667 1.15582,-2.29688 1.71485,-3.39063 0.55903,-1.11806 1.09309,-2.16254 1.60351,-3.13476 0.53472,-0.99653 0.99588,-1.82422 1.38477,-2.48047 -0.94791,1.04514 -1.90668,2.01866 -2.87891,2.91797 -0.97222,0.875 -1.93294,1.64062 -2.88086,2.29687 -0.94791,0.65625 -1.88303,1.17752 -2.80664,1.56641 -0.89931,0.36458 -1.77431,0.54687 -2.625,0.54687 -0.94792,0 -1.81207,-0.16948 -2.58984,-0.50976 -0.75347,-0.36458 -1.40972,-0.875 -1.96875,-1.53125 -0.53473,-0.65625 -0.94661,-1.43468 -1.23828,-2.33399 -0.29167,-0.89931 -0.4375,-1.89453 -0.4375,-2.98828 0,-0.0606 9e-4,-0.12084 0.002,-0.18164 -0.23526,0.33854 -0.48052,0.67766 -0.73242,1.01953 -0.65625,0.89931 -1.37261,1.77431 -2.15039,2.625 -0.77778,0.85069 -1.60352,1.60352 -2.47852,2.25977 -0.85069,0.65625 -1.7513,1.17947 -2.69922,1.56836 -0.94791,0.38889 -1.91948,0.58398 -2.91601,0.58398 -1.45833,0 -2.52844,-0.4375 -3.20899,-1.3125 -0.68055,-0.875 -1.01953,-2.0052 -1.01953,-3.39062 v -0.6211 c 0.0243,-0.34028 0.0608,-0.60633 0.10938,-0.80078 -1.21528,1.53125 -2.38195,2.79449 -3.5,3.79102 -1.09375,0.99653 -2.16385,1.78581 -3.20899,2.36914 -1.02083,0.58333 -2.01801,0.98437 -2.99023,1.20312 -0.94792,0.24306 -1.85938,0.36524 -2.73438,0.36524 -0.92361,0 -1.79861,-0.15864 -2.625,-0.47461 -0.80208,-0.29167 -1.50564,-0.72917 -2.11328,-1.3125 -0.63195,-0.58333 -1.1187,-1.29969 -1.45898,-2.15039 -0.36458,-0.85069 -0.54688,-1.83508 -0.54688,-2.95313 0,-0.2309 0.01,-0.46728 0.0274,-0.70898 -0.0923,0.12667 -0.18782,0.25367 -0.28321,0.38086 -0.65625,0.85069 -1.38542,1.62911 -2.1875,2.33398 -0.77778,0.70486 -1.65278,1.28819 -2.625,1.75 -0.94792,0.4375 -1.9796,0.65625 -3.09765,0.65625 -0.53473,0 -1.10722,-0.0729 -1.71485,-0.21875 -0.58333,-0.14583 -1.1302,-0.40103 -1.64062,-0.76562 -0.51042,-0.36458 -0.95877,-0.86415 -1.34766,-1.4961 -0.38889,-0.65625 -0.64409,-1.48198 -0.76562,-2.47851 -1.82292,1.96875 -3.59853,3.46354 -5.32422,4.48437 -1.7257,0.99653 -3.35352,1.49414 -4.88477,1.49414 -0.77778,0 -1.63997,-0.13303 -2.58789,-0.40039 -0.92361,-0.26736 -1.79861,-0.72851 -2.625,-1.38476 -0.82639,-0.65625 -1.51909,-1.5204 -2.07812,-2.58985 -0.55903,-1.09375 -0.83985,-2.4427 -0.83985,-4.04687 0,-0.15675 0.004,-0.31134 0.008,-0.4668 -0.29512,0.50986 -0.61401,1.04183 -0.95508,1.59766 -0.65625,1.04514 -1.38542,2.11523 -2.1875,3.20898 -0.77778,1.09375 -1.63997,2.07813 -2.58789,2.95313 -0.92361,0.875 -1.9336,1.59136 -3.02735,2.15039 -1.09375,0.55903 -2.26041,0.83789 -3.5,0.83789 -0.68055,0 -1.324,-0.10938 -1.93164,-0.32813 -0.60764,-0.19444 -1.1417,-0.50975 -1.60351,-0.94726 -0.46181,-0.4375 -0.82639,-0.97158 -1.09375,-1.60352 -0.26736,-0.65625 -0.40235,-1.42187 -0.40235,-2.29687 0,-1.19097 0.23155,-2.43056 0.69336,-3.71875 0.48611,-1.3125 1.04579,-2.57769 1.67774,-3.79297 0.63195,-1.21528 1.26259,-2.31988 1.89453,-3.31641 0.63195,-1.02083 1.09505,-1.83572 1.38672,-2.44336 0.29167,-0.60764 0.4375,-1.13086 0.4375,-1.56836 0,-0.31597 -0.10938,-0.59484 -0.32813,-0.83789 -0.19445,-0.24305 -0.44965,-0.47461 -0.76562,-0.69336 -0.29167,-0.24305 -0.60894,-0.48545 -0.94922,-0.72851 -0.31597,-0.26736 -0.58203,-0.58269 -0.80078,-0.94727 -0.60764,0.97222 -1.22743,1.9566 -1.85938,2.95313 -0.55903,0.8507 -1.16797,1.80946 -1.82422,2.8789 -0.65625,1.04514 -1.28689,2.07878 -1.89453,3.09961 l -1.3125,-1.02148 1.23828,1.09375 c -1.60417,2.67361 -3.23198,4.93403 -4.88476,6.78125 -1.65277,1.82292 -3.30621,3.30686 -4.95899,4.44922 -1.62847,1.14236 -3.23264,1.96809 -4.8125,2.47851 -1.57987,0.51042 -3.0855,0.76563 -4.51953,0.76563 -1.04514,0 -2.15169,-0.14583 -3.31836,-0.4375 -1.16667,-0.29167 -2.24761,-0.77843 -3.24414,-1.45899 -0.97223,-0.68055 -1.77431,-1.592 -2.40625,-2.73437 -0.65625,-1.14236 -0.98437,-2.56424 -0.98437,-4.26563 0,-0.56781 0.0305,-1.12797 0.0918,-1.68164 -0.1144,0.17083 -0.23063,0.34276 -0.34765,0.51563 -1.06945,1.57986 -2.25977,3.051 -3.57227,4.41211 -1.28819,1.33681 -2.69922,2.4542 -4.23047,3.35351 -1.53125,0.875 -3.18272,1.3125 -4.95703,1.3125 -1.09375,0 -2.05447,-0.19509 -2.88086,-0.58398 -0.80209,-0.38889 -1.48198,-0.92297 -2.04101,-1.60352 -0.55903,-0.70486 -0.97288,-1.53059 -1.24024,-2.47851 -0.29167,-0.94791 -0.4375,-1.98155 -0.4375,-3.09961 0,-0.676 0.10361,-1.61232 0.3125,-2.81055 -0.52648,0.74497 -1.08039,1.4862 -1.66211,2.22656 -1.3125,1.67708 -2.75802,3.19749 -4.33789,4.5586 -1.57986,1.33681 -3.28059,2.41775 -5.10351,3.24414 -1.82291,0.8507 -3.75521,1.27539 -5.79688,1.27539 -1.82292,0 -3.35416,-0.4375 -4.59375,-1.3125 -1.26389,-0.8507 -2.04231,-2.13759 -2.33398,-3.86328 l 1.3125,-0.25586 c 0,0.14583 0.0729,0.38823 0.21875,0.72851 0.12153,0.31597 0.32747,0.63325 0.61914,0.94922 0.29167,0.31597 0.6927,0.59484 1.20312,0.83789 0.48611,0.24305 1.09505,0.36524 1.82422,0.36524 0.97223,0 1.83442,-0.21875 2.58789,-0.65625 0.75347,-0.46181 1.40972,-1.05794 1.96875,-1.78711 0.55903,-0.72917 1.03299,-1.55491 1.42188,-2.47852 0.38889,-0.94792 0.69336,-1.92144 0.91211,-2.91797 0.24306,-0.99653 0.41254,-1.9681 0.50976,-2.91601 0.0972,-0.94792 0.14649,-1.81012 0.14649,-2.58789 0,-0.77778 -0.0365,-1.64193 -0.10938,-2.58985 -0.0486,-0.94791 -0.11066,-1.84657 -0.18359,-2.69726 -0.0729,-0.87501 -0.14584,-1.62783 -0.21875,-2.25977 -0.0486,-0.65625 -0.0723,-1.0829 -0.0723,-1.27734 v -0.0723 c -0.31597,0.34028 -0.69336,0.83789 -1.13086,1.49414 -0.4375,0.65625 -0.91146,1.37458 -1.42187,2.15235 -0.48611,0.77778 -0.98372,1.56705 -1.49414,2.36914 -0.48611,0.80208 -0.93641,1.53125 -1.34961,2.1875 -0.38889,0.65625 -0.71702,1.20312 -0.98438,1.64062 -0.24306,0.4132 -0.36328,0.63195 -0.36328,0.65625 l -1.3125,-1.02148 1.23828,1.09375 c -1.60417,2.67361 -3.23198,4.93403 -4.88476,6.78125 -1.65278,1.82292 -3.30622,3.30686 -4.95899,4.44922 -1.62847,1.14236 -3.23263,1.96809 -4.8125,2.47851 -1.57986,0.51042 -3.0855,0.76563 -4.51953,0.76563 -1.04514,0 -2.15169,-0.14583 -3.31836,-0.4375 -1.16667,-0.29167 -2.24761,-0.77843 -3.24414,-1.45899 -0.97222,-0.68055 -1.7743,-1.592 -2.40625,-2.73437 -0.65625,-1.14236 -0.98438,-2.56424 -0.98438,-4.26563 0,-1.82292 0.31532,-3.57292 0.94727,-5.25 0.60763,-1.70139 1.40972,-3.27995 2.40625,-4.73828 0.99653,-1.45833 2.13954,-2.78364 3.42773,-3.97461 1.28819,-1.21528 2.58789,-2.24892 3.9004,-3.09961 1.3368,-0.85069 2.6365,-1.50694 3.90039,-1.96875 1.26389,-0.48611 2.38324,-0.72851 3.35547,-0.72851 0.63194,0 1.27539,0.0965 1.93164,0.29101 0.65625,0.19445 1.23958,0.49892 1.75,0.91211 0.53472,0.41319 0.95942,0.96008 1.27539,1.64063 0.34028,0.68056 0.51172,1.49545 0.51172,2.44336 0,1.2882 -0.30447,2.50217 -0.91211,3.64453 -0.58333,1.11805 -1.37261,2.16449 -2.36914,3.13672 -0.99653,0.94791 -2.15234,1.81011 -3.46485,2.58789 -1.3125,0.75347 -2.68511,1.39692 -4.11914,1.93164 -1.43403,0.53473 -2.87956,0.96137 -4.33789,1.27734 -1.45833,0.31597 -2.84375,0.48546 -4.15625,0.50977 -0.0486,0.29167 -0.0851,0.58333 -0.10938,0.875 -0.0243,0.29167 -0.0371,0.58333 -0.0371,0.875 0,0.875 0.12217,1.71353 0.36523,2.51562 0.26736,0.77777 0.6428,1.47049 1.12891,2.07813 0.51042,0.58333 1.1302,1.04448 1.85937,1.38476 0.75347,0.34028 1.60483,0.51172 2.55274,0.51172 3.18403,0 6.25933,-1.08289 9.22461,-3.24609 2.96528,-2.16319 5.9184,-5.59028 8.85937,-10.28125 0.0243,-0.0243 0.32685,-0.5456 0.91016,-1.56641 0.58333,-1.02083 1.34895,-2.30968 2.29687,-3.86523 0.97222,-1.57987 2.06597,-3.31706 3.28125,-5.21289 1.21528,-1.92014 2.46767,-3.77952 3.75586,-5.57813 l 1.45899,1.20313 c -0.12153,0.21875 -0.28017,0.46114 -0.47461,0.72851 -0.19445,0.24305 -0.38954,0.53472 -0.58399,0.875 -0.17014,0.31597 -0.32682,0.69336 -0.47265,1.13086 -0.12153,0.4375 -0.1836,0.95878 -0.1836,1.56641 0,0.51042 0.12218,1.20312 0.36524,2.07812 0.26736,0.875 0.54622,1.88499 0.83789,3.02735 0.29167,1.11806 0.55968,2.34483 0.80273,3.68164 0.26736,1.3125 0.40039,2.67426 0.40039,4.08398 0,2.06597 -0.27886,3.88888 -0.83789,5.46875 -0.55903,1.57986 -1.301,2.92883 -2.22461,4.04688 1.89583,-1.02083 3.75521,-2.47917 5.57813,-4.375 1.82292,-1.92014 3.65864,-4.352 5.50586,-7.29297 l 0.24414,0.21484 c 0.12252,-0.44182 0.15713,-0.75958 0.30273,-1.23437 0.55903,-1.84723 1.301,-3.9145 2.22461,-6.19922 0.94791,-2.28473 2.13824,-4.73828 3.57227,-7.36328 h -6.05274 l 0.73047,-1.89649 h 6.37891 c 0.24305,-0.4132 0.6697,-1.12956 1.27734,-2.15039 0.63195,-1.02083 1.36111,-2.15104 2.1875,-3.39062 0.85069,-1.23959 1.76215,-2.47916 2.73438,-3.71875 0.99653,-1.26389 1.96809,-2.33399 2.91601,-3.20899 l 1.64063,0.98438 c -1.04514,1.7257 -2.11524,3.56141 -3.20899,5.50586 -1.09375,1.92014 -2.17469,3.91254 -3.24414,5.97851 h 11.88477 l -0.72852,1.89649 h -12.14062 c -1.09375,2.1875 -2.12739,4.3622 -3.09961,6.52539 -0.94792,2.1632 -1.78646,4.22851 -2.51563,6.19726 -0.72917,1.96875 -1.2997,3.81728 -1.71289,5.54297 -0.41319,1.70139 -0.61914,3.18338 -0.61914,4.44727 0,1.57986 0.36458,2.72286 1.09375,3.42773 0.72917,0.68055 1.62782,1.01953 2.69727,1.01953 0.94791,0 1.91948,-0.27886 2.91601,-0.83789 0.99653,-0.58333 1.97006,-1.3125 2.91797,-2.1875 0.97223,-0.875 1.88369,-1.83572 2.73438,-2.88086 0.875,-1.04514 1.64062,-2.02951 2.29687,-2.95312 0.68055,-0.92361 1.23828,-1.7257 1.67578,-2.40625 0.4375,-0.70486 0.70552,-1.14236 0.80274,-1.3125 l 0.17773,0.13476 c 0.52567,-1.21744 1.16012,-2.36785 1.90039,-3.45117 0.99653,-1.45833 2.13955,-2.78364 3.42774,-3.97461 1.2882,-1.21528 2.58789,-2.24892 3.90039,-3.09961 1.33681,-0.85069 2.6365,-1.50694 3.90039,-1.96875 1.26389,-0.48611 2.38325,-0.72851 3.35547,-0.72851 0.63195,0 1.27539,0.0965 1.93164,0.29101 0.65625,0.19445 1.23959,0.49892 1.75,0.91211 0.53473,0.41319 0.95942,0.96008 1.27539,1.64063 0.34027,0.68056 0.51172,1.49545 0.51172,2.44336 0,1.2882 -0.30447,2.50217 -0.91211,3.64453 -0.58333,1.11805 -1.37261,2.16449 -2.36914,3.13672 -0.99653,0.94791 -2.15235,1.81011 -3.46485,2.58789 -1.3125,0.75347 -2.68511,1.39692 -4.11914,1.93164 -1.43403,0.53473 -2.87956,0.96137 -4.33789,1.27734 -1.45833,0.31597 -2.84375,0.48546 -4.15625,0.50977 -0.0486,0.29167 -0.0851,0.58333 -0.10937,0.875 -0.0243,0.29167 -0.0371,0.58333 -0.0371,0.875 0,0.875 0.12217,1.71353 0.36523,2.51562 0.26736,0.77777 0.6428,1.47049 1.12891,2.07813 0.51041,0.58333 1.1302,1.04448 1.85937,1.38476 0.75347,0.34028 1.60482,0.51172 2.55274,0.51172 3.18403,0 6.25933,-1.08289 9.22461,-3.24609 2.96528,-2.16319 5.9184,-5.59028 8.85937,-10.28125 l 7.80078,-12.21289 1.0586,0.54687 c -0.0486,0.14583 -0.13432,0.37739 -0.25586,0.69336 -0.0972,0.31597 -0.14649,0.65494 -0.14649,1.01953 0,0.26736 0.0365,0.53538 0.10938,0.80274 0.0972,0.24306 0.27951,0.47461 0.54687,0.69336 0.97222,0.875 1.73785,1.5549 2.29688,2.04101 0.55903,0.46181 0.96007,0.83919 1.20312,1.13086 0.26736,0.26736 0.426,0.49696 0.47461,0.69141 0.0729,0.17014 0.10938,0.40169 0.10938,0.69336 0,0.29167 -0.0492,0.64345 -0.14649,1.05664 -0.0972,0.41319 -0.2667,0.91276 -0.50976,1.49609 -0.21875,0.58333 -0.53408,1.27604 -0.94727,2.07813 -0.38889,0.77777 -0.88846,1.68923 -1.49609,2.73437 -0.36459,0.63195 -0.72916,1.27539 -1.09375,1.93164 -0.34027,0.63194 -0.6556,1.27539 -0.94727,1.93164 -0.26736,0.65625 -0.48611,1.3125 -0.65625,1.96875 -0.17014,0.65625 -0.25586,1.28885 -0.25586,1.89649 0,0.46181 0.0621,0.83919 0.1836,1.13086 0.14583,0.26736 0.32812,0.47331 0.54687,0.61914 0.21875,0.14583 0.44836,0.2424 0.69141,0.29101 0.26737,0.0486 0.52257,0.0742 0.76562,0.0742 0.80209,0 1.59333,-0.23155 2.3711,-0.69336 0.80209,-0.48611 1.57856,-1.1059 2.33203,-1.85937 0.77777,-0.75347 1.51974,-1.60483 2.22461,-2.55274 0.72917,-0.97223 1.42187,-1.95659 2.07812,-2.95312 0.65625,-0.99653 1.26324,-1.94444 1.82227,-2.84375 0.55903,-0.92361 1.05859,-1.7257 1.49609,-2.40625 l 0.0566,0.043 c 0.0168,-0.0505 0.0355,-0.10199 0.0527,-0.15235 0.55903,-1.62847 1.31184,-3.13411 2.25976,-4.51953 0.94791,-1.40973 2.02886,-2.67492 3.24414,-3.79297 1.23958,-1.14236 2.52843,-2.10112 3.86524,-2.8789 1.33681,-0.80208 2.67295,-1.42188 4.00976,-1.85938 1.36111,-0.43751 2.63716,-0.65625 3.82813,-0.65625 1.57986,0 2.81944,0.19314 3.71875,0.58203 0.89931,0.38889 1.58116,0.77908 2.04297,1.16797 0.34028,-0.68056 0.80143,-1.5447 1.38476,-2.58984 0.58333,-1.06944 1.26325,-2.24696 2.04102,-3.53516 0.77778,-1.3125 1.64192,-2.69792 2.58984,-4.15625 0.94791,-1.48264 1.95594,-2.96658 3.02539,-4.44922 1.06945,-1.50695 2.18685,-2.98893 3.35352,-4.44726 1.19097,-1.45833 2.3941,-2.8201 3.60937,-4.08399 z m -20.48828,23.66211 c -1.19097,0 -2.4069,0.24241 -3.64648,0.72852 -1.21528,0.48611 -2.39475,1.14236 -3.53711,1.96875 -1.11806,0.82639 -2.17535,1.81076 -3.17188,2.95312 -0.99653,1.11806 -1.87153,2.32119 -2.625,3.60938 -0.72917,1.28819 -1.3125,2.63714 -1.75,4.04687 -0.41319,1.38541 -0.61914,2.75999 -0.61914,4.1211 0,1.82292 0.37739,3.24479 1.13086,4.26562 0.77778,1.02083 1.80947,1.53125 3.09766,1.53125 0.60764,0 1.27669,-0.12217 2.00586,-0.36523 0.72917,-0.24305 1.51844,-0.6313 2.36914,-1.16602 0.875,-0.55903 1.78646,-1.26454 2.73437,-2.11523 0.94792,-0.875 1.9451,-1.9323 2.99024,-3.17188 0.12153,-1.79861 0.53537,-3.91319 1.24023,-6.34375 0.72917,-2.45486 1.83377,-5.27495 3.31641,-8.45898 -0.34028,-0.51041 -0.82509,-0.89866 -1.45703,-1.16602 -0.60764,-0.29167 -1.30035,-0.4375 -2.07813,-0.4375 z m -116.48437,0.4375 c -1.06945,0 -2.27257,0.38825 -3.60938,1.16602 -1.33681,0.75347 -2.67491,1.81076 -4.01172,3.17187 -1.33681,1.33681 -2.60004,2.91732 -3.79101,4.74024 -1.16667,1.82291 -2.11458,3.77886 -2.84375,5.86914 1.62847,-0.17014 3.15972,-0.50912 4.59375,-1.01953 1.43403,-0.51042 2.74653,-1.13021 3.9375,-1.85938 1.19097,-0.75347 2.24826,-1.56836 3.17187,-2.44336 0.94792,-0.875 1.73719,-1.7628 2.36914,-2.66211 0.63194,-0.89931 1.11871,-1.7615 1.45899,-2.58789 0.34028,-0.82639 0.50976,-1.56836 0.50976,-2.22461 0,-0.65625 -0.18228,-1.17751 -0.54687,-1.5664 -0.34028,-0.38889 -0.75217,-0.58399 -1.23828,-0.58399 z m 66.9375,0 c -1.06945,0 -2.27257,0.38825 -3.60938,1.16602 -1.33681,0.75347 -2.67491,1.81076 -4.01172,3.17187 -1.3368,1.33681 -2.60004,2.91732 -3.79101,4.74024 -1.16667,1.82291 -2.11458,3.77886 -2.84375,5.86914 1.62847,-0.17014 3.15972,-0.50912 4.59375,-1.01953 1.43403,-0.51042 2.74653,-1.13021 3.9375,-1.85938 1.19097,-0.75347 2.24826,-1.56836 3.17187,-2.44336 0.94791,-0.875 1.73719,-1.7628 2.36914,-2.66211 0.63195,-0.89931 1.11872,-1.7615 1.45899,-2.58789 0.34028,-0.82639 0.50976,-1.56836 0.50976,-2.22461 0,-0.65625 -0.18228,-1.17751 -0.54687,-1.5664 -0.34027,-0.38889 -0.75217,-0.58399 -1.23828,-0.58399 z m 83.63476,1.27539 c -0.75347,0 -1.60481,0.12219 -2.55273,0.36524 -0.92361,0.21875 -1.91883,0.60698 -2.98828,1.16601 -1.04514,0.53472 -2.12805,1.25304 -3.2461,2.15235 -1.11806,0.89931 -2.23546,2.0167 -3.35351,3.35351 -1.67709,2.01736 -2.97678,4.04622 -3.90039,6.08789 -0.89931,2.01736 -1.34961,3.84028 -1.34961,5.46875 0,1.38541 0.31531,2.45552 0.94726,3.20899 0.63195,0.75347 1.53255,1.13086 2.69922,1.13086 1.33681,0 2.58724,-0.29167 3.75391,-0.875 1.16667,-0.60764 2.26042,-1.38608 3.28125,-2.33399 1.02083,-0.94792 1.99436,-1.9924 2.91797,-3.13476 0.92361,-1.16667 1.82226,-2.30968 2.69726,-3.42774 0.31597,-0.51041 0.70422,-1.15386 1.16602,-1.93164 0.46181,-0.80208 0.94856,-1.61697 1.45898,-2.44336 0.51041,-0.85069 1.00803,-1.66558 1.49414,-2.44336 0.48611,-0.77777 0.91277,-1.43402 1.27735,-1.96875 0,-0.21875 -0.0365,-0.57053 -0.10938,-1.05664 -0.0486,-0.48611 -0.20724,-0.97287 -0.47461,-1.45898 -0.26736,-0.51042 -0.69206,-0.94792 -1.27539,-1.3125 -0.58333,-0.36459 -1.39822,-0.54688 -2.44336,-0.54688 z m 22.24024,31.35547 c -2.79514,1.72569 -5.39649,3.55946 -7.80274,5.50391 -2.38195,1.96875 -4.44726,3.90104 -6.19726,5.79687 -1.77431,1.92014 -3.15972,3.7194 -4.15625,5.39649 -0.99653,1.67708 -1.4961,3.09895 -1.4961,4.26562 0,0.77778 0.23156,1.39757 0.69336,1.85938 0.4375,0.46181 1.00802,0.69336 1.71289,0.69336 0.94791,0 1.9323,-0.32813 2.95313,-0.98438 0.99653,-0.63194 2.00651,-1.50694 3.02734,-2.625 0.99653,-1.11805 1.99175,-2.44336 2.98828,-3.97461 0.99653,-1.50695 1.97005,-3.13476 2.91797,-4.88476 0.97222,-1.72569 1.90733,-3.53777 2.80664,-5.4336 0.89931,-1.87153 1.75065,-3.74175 2.55274,-5.61328 z m -160.13868,0.1543 c 0.15277,0 0.27017,0.0442 0.35352,0.13086 0.0868,0.0834 0.13086,0.20315 0.13086,0.35937 0,0.16328 -0.0441,0.34839 -0.13086,0.55664 -0.0868,0.20485 -0.20182,0.42123 -0.34766,0.65039 -0.14584,0.22904 -0.31727,0.46579 -0.51172,0.70899 -0.19096,0.24315 -0.39409,0.48511 -0.60937,0.72461 -0.21181,0.23962 -0.42578,0.47163 -0.64453,0.69726 -0.21876,0.22224 -0.42948,0.42818 -0.63086,0.61914 l -0.63477,1.38868 c 0.18404,-0.24996 0.37436,-0.47913 0.57227,-0.6875 0.19792,-0.21191 0.39822,-0.39419 0.59961,-0.54688 0.2014,-0.15269 0.39931,-0.27011 0.59375,-0.35351 0.19792,-0.0869 0.38824,-0.13086 0.57226,-0.13086 0.125,0 0.2268,0.0203 0.30664,0.0586 0.0833,0.0383 0.14821,0.0879 0.19336,0.15039 0.0486,0.059 0.0822,0.12615 0.0996,0.19922 0.0209,0.0728 0.0312,0.14568 0.0312,0.21875 0,0.12498 -0.026,0.26038 -0.0781,0.40625 -0.0521,0.14236 -0.11937,0.29102 -0.19922,0.44726 -0.0764,0.15623 -0.15972,0.3153 -0.25,0.47852 -0.0903,0.16328 -0.17406,0.3243 -0.25391,0.48047 -0.0764,0.15622 -0.14127,0.30769 -0.19336,0.45703 -0.0521,0.14589 -0.0781,0.28368 -0.0781,0.41211 0,0.0799 0.018,0.15507 0.0527,0.22461 0.0382,0.066 0.10351,0.0977 0.19727,0.0977 0.11112,0 0.23373,-0.0549 0.36914,-0.16602 0.13541,-0.11465 0.27321,-0.25808 0.41211,-0.43164 0.14236,-0.17713 0.28299,-0.37461 0.42187,-0.58984 0.14237,-0.21519 0.27496,-0.42396 0.39649,-0.62891 l 0.0254,0.0195 c 0.0752,-0.1742 0.16559,-0.33926 0.27148,-0.49414 0.14236,-0.20838 0.30426,-0.39826 0.48828,-0.56836 0.18404,-0.17361 0.37111,-0.31988 0.5586,-0.44141 0.19096,-0.12144 0.37608,-0.21523 0.55664,-0.28125 0.18056,-0.0695 0.33963,-0.10546 0.47851,-0.10546 0.0903,0 0.18359,0.0152 0.27735,0.043 0.0938,0.0277 0.17708,0.0699 0.25,0.12891 0.0764,0.059 0.13651,0.13712 0.18164,0.23438 0.0486,0.0973 0.0723,0.2143 0.0723,0.3496 0,0.18394 -0.0421,0.35626 -0.1289,0.51954 -0.0833,0.15974 -0.19748,0.31035 -0.33985,0.44921 -0.14236,0.13531 -0.30664,0.25803 -0.49414,0.36915 -0.18749,0.10759 -0.38301,0.19904 -0.58789,0.27539 -0.20485,0.0763 -0.41275,0.13849 -0.62109,0.18359 -0.20833,0.0451 -0.40624,0.0687 -0.59375,0.0723 -0.007,0.0416 -0.0124,0.0832 -0.0156,0.125 -0.004,0.0416 -0.004,0.0832 -0.004,0.125 0,0.12497 0.0161,0.24472 0.0508,0.35937 0.0382,0.11112 0.0927,0.20995 0.16211,0.29688 0.0729,0.0834 0.16146,0.15058 0.26562,0.19921 0.10764,0.0486 0.22983,0.0723 0.36524,0.0723 0.45486,0 0.89279,-0.15388 1.3164,-0.46289 0.42362,-0.30904 0.84549,-0.79862 1.26563,-1.46875 l 0.17773,0.15625 c -0.22916,0.38193 -0.46115,0.70486 -0.69726,0.96875 -0.23612,0.26043 -0.47288,0.47159 -0.70899,0.63476 -0.23264,0.16328 -0.4618,0.2807 -0.6875,0.35352 -0.22568,0.0728 -0.44161,0.10938 -0.64648,0.10938 -0.14932,0 -0.306,-0.0209 -0.47266,-0.0625 -0.16667,-0.0416 -0.32249,-0.10978 -0.46484,-0.20704 -0.13889,-0.0973 -0.25347,-0.22747 -0.34375,-0.39062 -0.0938,-0.16328 -0.14063,-0.3664 -0.14063,-0.60938 0,-0.0712 0.005,-0.1432 0.0117,-0.21289 -0.0101,0.0164 -0.0208,0.0339 -0.0312,0.0508 -0.0868,0.14237 -0.18575,0.2906 -0.29687,0.44336 -0.10764,0.1527 -0.22461,0.29332 -0.34961,0.42188 -0.12153,0.12498 -0.24935,0.22677 -0.38477,0.30664 -0.13541,0.0834 -0.27321,0.125 -0.41211,0.125 -0.0903,0 -0.1812,-0.009 -0.27148,-0.0293 -0.0904,-0.0202 -0.17122,-0.059 -0.24414,-0.11523 -0.0729,-0.0557 -0.13261,-0.13088 -0.17774,-0.22461 -0.0452,-0.0973 -0.0664,-0.21935 -0.0664,-0.36524 0,-0.17007 0.0265,-0.34196 0.082,-0.51562 0.059,-0.17713 0.13152,-0.34943 0.21484,-0.51953 0.0868,-0.17361 0.18054,-0.34028 0.28125,-0.5 0.10069,-0.16328 0.19204,-0.3167 0.27539,-0.45899 0.0868,-0.14236 0.15733,-0.27019 0.21289,-0.38476 0.059,-0.11792 0.0898,-0.217 0.0898,-0.29688 0,-0.14236 -0.0701,-0.21289 -0.20899,-0.21289 -0.19792,0 -0.40864,0.0652 -0.63086,0.19727 -0.21876,0.1285 -0.43794,0.29756 -0.66015,0.50586 -0.22221,0.20838 -0.44096,0.44276 -0.65625,0.70312 -0.21528,0.25696 -0.41797,0.5126 -0.60547,0.76953 l -0.79102,1.49024 -0.47461,-0.1875 c 0.14433,-0.3148 0.28713,-0.62922 0.42774,-0.94141 -0.11031,0.14479 -0.22752,0.28344 -0.35352,0.41406 -0.18404,0.191 -0.38672,0.35007 -0.60547,0.47852 -0.21876,0.12498 -0.45356,0.1875 -0.70703,0.1875 -0.15624,0 -0.29405,-0.0283 -0.41211,-0.084 -0.11459,-0.0554 -0.21116,-0.13126 -0.29101,-0.22852 -0.0799,-0.10079 -0.13956,-0.21821 -0.17774,-0.35352 -0.0417,-0.1353 -0.0625,-0.28351 -0.0625,-0.44335 0,-0.10407 0.018,-0.25034 0.0527,-0.44141 0.0312,-0.19099 0.0861,-0.41735 0.16601,-0.67774 0.0799,-0.26391 0.18641,-0.55839 0.31836,-0.88476 0.13541,-0.3264 0.3049,-0.67773 0.50977,-1.05274 H 263.119 l 0.10547,-0.27148 h 0.91016 c 0.0347,-0.059 0.0968,-0.16075 0.18359,-0.30664 0.0903,-0.14589 0.19446,-0.30734 0.3125,-0.48438 0.12153,-0.17713 0.25174,-0.35421 0.39063,-0.53125 0.14236,-0.18066 0.2806,-0.33408 0.41601,-0.45898 l 0.23438,0.14063 c -0.14932,0.24642 -0.30275,0.50921 -0.45899,0.7871 -0.15624,0.2743 -0.3101,0.55836 -0.46289,0.85352 h 1.69727 l -0.10352,0.27148 h -1.73437 c -0.15625,0.3125 -0.30447,0.62261 -0.44336,0.93165 -0.13541,0.30901 -0.25521,0.60351 -0.35938,0.88476 -0.10416,0.28125 -0.1851,0.54642 -0.24414,0.79297 -0.059,0.24315 -0.0879,0.45431 -0.0879,0.63477 0,0.22576 0.0521,0.38962 0.15625,0.49023 0.10417,0.0973 0.23199,0.14648 0.38477,0.14648 0.13541,0 0.27364,-0.0412 0.41601,-0.12109 0.14237,-0.0834 0.28255,-0.18752 0.41797,-0.3125 0.13889,-0.12498 0.2691,-0.26279 0.39063,-0.41211 0.125,-0.14942 0.23437,-0.29004 0.32812,-0.42187 0.0972,-0.13204 0.17577,-0.24479 0.23828,-0.3418 0.0625,-0.10079 0.10135,-0.16331 0.11524,-0.1875 l 0.0547,0.041 c 0.13998,-0.31676 0.27797,-0.63322 0.41406,-0.94726 0.40972,-0.94098 0.82921,-1.86847 1.25976,-2.78516 0.066,-0.14236 0.14367,-0.29819 0.23047,-0.46484 0.0903,-0.16655 0.18447,-0.33322 0.28516,-0.5 0.10416,-0.1668 0.21594,-0.32587 0.33398,-0.47852 0.11805,-0.15269 0.24024,-0.2881 0.36524,-0.40625 0.125,-0.11792 0.25282,-0.2117 0.38476,-0.28125 0.13541,-0.0728 0.27083,-0.10937 0.40625,-0.10937 z m -41.71484,0.24805 0.0898,0.14062 c -0.22569,0.1285 -0.43684,0.28715 -0.63476,0.47461 0.21528,0.0937 0.4132,0.20882 0.59375,0.34766 0.18404,0.13883 0.34072,0.30028 0.47265,0.48437 0.13541,0.18394 0.23958,0.39228 0.3125,0.625 0.0764,0.22929 0.11524,0.48405 0.11524,0.76172 0,0.23609 -0.0417,0.46007 -0.125,0.67187 -0.0798,0.20838 -0.19205,0.39631 -0.33789,0.56641 -0.14236,0.16655 -0.31424,0.30956 -0.51563,0.42774 -0.19792,0.11464 -0.41623,0.19513 -0.65234,0.24023 0.11459,0.15622 0.2079,0.32854 0.27734,0.51953 0.0729,0.18747 0.10938,0.39297 0.10938,0.61524 0,0.0902 -0.0127,0.19728 -0.0371,0.32226 -0.0244,0.12145 -0.0557,0.25121 -0.0937,0.38672 -0.0347,0.13531 -0.076,0.27117 -0.1211,0.41016 -0.0417,0.1353 -0.0809,0.26268 -0.11914,0.38086 -0.0347,0.11817 -0.0636,0.22229 -0.0879,0.3125 -0.0244,0.0902 -0.0371,0.15543 -0.0371,0.19726 0,0.10079 0.0284,0.17894 0.084,0.23438 0.059,0.059 0.13759,0.0898 0.23828,0.0898 0.18404,0 0.3583,-0.0412 0.52148,-0.12109 0.1632,-0.0763 0.31663,-0.18047 0.45899,-0.3125 0.14584,-0.12851 0.28169,-0.27717 0.41015,-0.44727 0.12848,-0.17361 0.25067,-0.3535 0.36524,-0.54102 0.11805,-0.18746 0.22979,-0.37496 0.33398,-0.5625 0.10764,-0.19099 0.21182,-0.37286 0.3125,-0.54296 l 0.0254,0.0195 c 0.0751,-0.17394 0.16574,-0.33752 0.27149,-0.49219 0.14236,-0.20838 0.3062,-0.39826 0.49023,-0.56836 0.18404,-0.17361 0.36915,-0.31988 0.55664,-0.44141 0.19097,-0.12144 0.37608,-0.21523 0.55664,-0.28125 0.18056,-0.0695 0.34159,-0.10546 0.48047,-0.10546 0.0903,0 0.18164,0.0152 0.27539,0.043 0.0938,0.0277 0.17708,0.0699 0.25,0.12891 0.0764,0.059 0.13652,0.13712 0.18164,0.23438 0.0486,0.0973 0.0742,0.2143 0.0742,0.3496 0,0.18394 -0.044,0.35626 -0.13086,0.51954 -0.0833,0.15974 -0.19553,0.31035 -0.33789,0.44921 -0.14236,0.13531 -0.30859,0.25803 -0.49609,0.36915 -0.18749,0.10759 -0.38302,0.19904 -0.58789,0.27539 -0.20485,0.0763 -0.4108,0.13849 -0.61914,0.18359 -0.20833,0.0451 -0.40625,0.0687 -0.59375,0.0723 -0.007,0.0416 -0.0123,0.0832 -0.0156,0.125 -0.004,0.0416 -0.006,0.0832 -0.006,0.125 0,0.12497 0.018,0.24472 0.0527,0.35937 0.0382,0.11112 0.0907,0.20995 0.16015,0.29688 0.0729,0.0834 0.16146,0.15058 0.26563,0.19921 0.10764,0.0486 0.22983,0.0723 0.36523,0.0723 0.45486,0 0.89475,-0.15388 1.31836,-0.46289 0.42361,-0.30904 0.84549,-0.79862 1.26563,-1.46875 0.003,-0.0107 0.006,-0.0206 0.01,-0.0312 0.0798,-0.24315 0.18402,-0.4671 0.3125,-0.67188 0.13196,-0.20485 0.283,-0.38953 0.45313,-0.55273 0.17013,-0.16655 0.34721,-0.30718 0.53125,-0.42188 0.18749,-0.11464 0.37499,-0.2008 0.5625,-0.25976 0.19096,-0.0625 0.37044,-0.0937 0.53711,-0.0937 0.17013,0 0.30836,0.0236 0.41601,0.0723 0.10764,0.0451 0.19337,0.1 0.25586,0.16602 0.0625,0.066 0.10419,0.13617 0.125,0.20898 0.0244,0.0728 0.0352,0.13535 0.0352,0.1875 0,0.0834 -0.0107,0.1719 -0.0352,0.26563 -0.0244,0.0937 -0.0605,0.17989 -0.10547,0.25977 -0.0417,0.0763 -0.0942,0.1412 -0.16015,0.19335 -0.0625,0.0522 -0.13262,0.0781 -0.20899,0.0781 -0.0764,0 -0.1417,-0.0236 -0.19726,-0.0723 -0.0556,-0.0521 -0.084,-0.11701 -0.084,-0.19336 0,-0.003 0.002,-0.0234 0.006,-0.0625 0.007,-0.0383 0.0231,-0.0776 0.0508,-0.11914 0.0278,-0.0451 0.0694,-0.0863 0.125,-0.12109 0.059,-0.0348 0.14193,-0.0508 0.2461,-0.0508 h 0.0625 v -0.002 c 0.0209,-0.0554 0.0312,-0.1133 0.0312,-0.17579 0,-0.11111 -0.0464,-0.19923 -0.13672,-0.26171 -0.0868,-0.066 -0.22504,-0.0977 -0.41602,-0.0977 -0.15624,0 -0.31488,0.034 -0.47461,0.10352 -0.15624,0.066 -0.30728,0.15746 -0.45312,0.27539 -0.14584,0.11792 -0.28169,0.25855 -0.41016,0.42187 -0.125,0.16328 -0.23437,0.34036 -0.32812,0.53125 -0.0903,0.19099 -0.16319,0.39412 -0.21875,0.60938 -0.0521,0.2119 -0.0781,0.42544 -0.0781,0.64062 0,0.17361 0.0184,0.32184 0.0566,0.44336 0.0382,0.12145 0.0927,0.22028 0.16211,0.29688 0.0694,0.0763 0.15277,0.13319 0.25,0.16796 0.0972,0.0312 0.20658,0.0469 0.32813,0.0469 0.23957,0 0.47155,-0.0545 0.69726,-0.16211 0.22569,-0.10759 0.43923,-0.24584 0.64063,-0.41602 0.20485,-0.1736 0.39235,-0.36632 0.5625,-0.57812 0.15033,-0.1835 0.2852,-0.36482 0.40429,-0.54297 0.0794,-0.14193 0.17668,-0.28934 0.29297,-0.44141 0.19097,-0.25348 0.38889,-0.46701 0.59375,-0.64062 0.20833,-0.17361 0.41145,-0.31185 0.60938,-0.41602 0.2014,-0.10759 0.39367,-0.18536 0.57422,-0.23047 0.18056,-0.0451 0.34202,-0.0664 0.48437,-0.0664 0.31945,0 0.55946,0.0526 0.72266,0.16015 0.1632,0.10407 0.26215,0.26552 0.29687,0.48438 0.0695,-0.0869 0.14236,-0.17309 0.21875,-0.25977 0.0764,-0.0869 0.15453,-0.17542 0.23438,-0.26562 l 0.16797,0.0723 c -0.0452,0.0902 -0.11004,0.20763 -0.19336,0.35352 -0.0798,0.14589 -0.16601,0.30734 -0.25977,0.48438 -0.0938,0.1736 -0.1899,0.3559 -0.28711,0.54687 -0.0937,0.19099 -0.17991,0.37849 -0.25976,0.5625 -0.0764,0.18066 -0.14128,0.35253 -0.19336,0.51563 -0.0486,0.15974 -0.0723,0.29518 -0.0723,0.40625 0,0.11111 0.0208,0.18397 0.0625,0.21875 0.0452,0.0312 0.10243,0.0469 0.17188,0.0469 0.10068,0 0.20247,-0.0289 0.30664,-0.0879 0.10764,-0.059 0.21181,-0.13478 0.3125,-0.22852 0.10416,-0.0937 0.2055,-0.20018 0.30273,-0.31836 0.0972,-0.11792 0.18618,-0.23729 0.26953,-0.35546 0.0868,-0.12145 0.16494,-0.23421 0.23438,-0.3418 0.0694,-0.11112 0.12913,-0.2049 0.17773,-0.28125 l 0.0176,0.0137 c 0.018,-0.14923 0.0433,-0.30216 0.0762,-0.45703 0.0764,-0.34721 0.17819,-0.69378 0.30664,-1.04102 0.12848,-0.35069 0.27952,-0.69682 0.45313,-1.03711 0.1736,-0.34025 0.35828,-0.66318 0.55273,-0.96875 0.19792,-0.30903 0.40344,-0.5931 0.61524,-0.85351 0.21528,-0.26389 0.42405,-0.49263 0.6289,-0.68359 0.20833,-0.191 0.40863,-0.33963 0.59961,-0.44727 0.19097,-0.10759 0.36523,-0.16211 0.52149,-0.16211 0.12152,0 0.2209,0.0289 0.30078,0.0879 0.0833,0.059 0.125,0.168 0.125,0.32422 0,0.10759 -0.0213,0.2354 -0.0664,0.38477 -0.0417,0.14941 -0.10136,0.31325 -0.17773,0.49023 -0.0729,0.17361 -0.15908,0.35634 -0.25977,0.55078 -0.10068,0.19099 -0.21005,0.38328 -0.32812,0.57422 -0.1146,0.19099 -0.23678,0.3761 -0.36524,0.55664 -0.125,0.18066 -0.25,0.34731 -0.375,0.5 -0.25,0.30901 -0.46636,0.56945 -0.65039,0.78125 -0.18056,0.21191 -0.33681,0.3918 -0.46875,0.54102 -0.13195,0.14589 -0.24373,0.26564 -0.33398,0.35937 -0.0903,0.0902 -0.17079,0.16836 -0.24024,0.23438 -0.0694,0.066 -0.13237,0.12816 -0.1914,0.18359 -0.059,0.0522 -0.12111,0.10977 -0.1836,0.17578 -0.0278,0.13203 -0.041,0.25941 -0.041,0.38086 0.004,0.11792 0.006,0.22734 0.006,0.32813 0,0.30208 0.0473,0.52606 0.14453,0.67187 0.0972,0.14589 0.23501,0.21875 0.41211,0.21875 0.11805,0 0.23544,-0.0289 0.35351,-0.0879 0.12153,-0.0625 0.24133,-0.14297 0.35938,-0.24023 0.11805,-0.0973 0.23263,-0.20668 0.34375,-0.32813 0.11112,-0.12498 0.21529,-0.25002 0.3125,-0.375 0.10069,-0.1285 0.19161,-0.25122 0.27148,-0.36914 0.0798,-0.11792 0.14995,-0.22166 0.20899,-0.30859 l 0.0176,0.0137 c 0.018,-0.14905 0.0434,-0.30041 0.0762,-0.45508 0.0764,-0.34721 0.17818,-0.69378 0.30664,-1.04102 0.12848,-0.35069 0.27952,-0.69682 0.45312,-1.03711 0.17361,-0.34025 0.35829,-0.66318 0.55274,-0.96875 0.19792,-0.30903 0.40148,-0.5931 0.61328,-0.85351 0.21528,-0.26389 0.426,-0.49263 0.63086,-0.68359 0.20833,-0.191 0.40863,-0.33963 0.59961,-0.44727 0.19096,-0.10759 0.36327,-0.16211 0.51953,-0.16211 0.12152,0 0.22286,0.0289 0.30273,0.0879 0.0833,0.059 0.125,0.168 0.125,0.32422 0,0.10759 -0.0232,0.2354 -0.0684,0.38477 -0.0417,0.14941 -0.0994,0.31325 -0.17578,0.49023 -0.0729,0.17361 -0.16103,0.35634 -0.26172,0.55078 -0.10068,0.19099 -0.21005,0.38328 -0.32812,0.57422 -0.1146,0.19099 -0.23483,0.3761 -0.36328,0.55664 -0.125,0.18066 -0.25,0.34731 -0.375,0.5 -0.25001,0.30901 -0.46832,0.56945 -0.65235,0.78125 -0.18056,0.21191 -0.33681,0.3918 -0.46875,0.54102 -0.13195,0.14589 -0.24177,0.26564 -0.33203,0.35937 -0.0903,0.0902 -0.17079,0.16836 -0.24023,0.23438 -0.0694,0.066 -0.13433,0.12816 -0.19336,0.18359 -0.059,0.0522 -0.11915,0.10977 -0.18164,0.17578 -0.0278,0.13203 -0.041,0.25941 -0.041,0.38086 0.004,0.11792 0.004,0.22734 0.004,0.32813 0,0.30208 0.0493,0.52606 0.14648,0.67187 0.0972,0.14589 0.23504,0.21875 0.41211,0.21875 0.11805,0 0.23545,-0.0289 0.35352,-0.0879 0.12152,-0.0625 0.2413,-0.14297 0.35937,-0.24023 0.11805,-0.0973 0.23264,-0.20668 0.34375,-0.32813 0.11112,-0.12498 0.21529,-0.25002 0.3125,-0.375 0.10069,-0.1285 0.19161,-0.25122 0.27149,-0.36914 0.0629,-0.0929 0.11799,-0.17636 0.16797,-0.25 0.0571,-0.10313 0.1195,-0.20665 0.18554,-0.30859 0.1632,-0.24996 0.3379,-0.48954 0.52539,-0.71875 0.19097,-0.22904 0.36762,-0.43739 0.52735,-0.625 l 0.16601,0.0742 c -0.0451,0.0902 -0.11001,0.20996 -0.19336,0.35938 -0.0798,0.14589 -0.166,0.30734 -0.25976,0.48437 -0.0938,0.17361 -0.1899,0.35634 -0.28711,0.55079 -0.0972,0.19099 -0.18575,0.37848 -0.26563,0.5625 -0.0764,0.18066 -0.13889,0.35212 -0.1875,0.51171 -0.0486,0.15975 -0.0723,0.29516 -0.0723,0.40625 0,0.10079 0.0208,0.16899 0.0625,0.20704 0.0417,0.0348 0.10136,0.0527 0.17773,0.0527 0.14236,0 0.2806,-0.0469 0.41602,-0.14062 0.13541,-0.0937 0.26844,-0.21582 0.40039,-0.36524 0.13541,-0.15269 0.268,-0.32501 0.39648,-0.51953 0.12818,-0.19407 0.2566,-0.39051 0.38477,-0.58789 v -0.002 c 0.17701,-0.27767 0.33815,-0.53068 0.48047,-0.75977 0.14584,-0.23257 0.28407,-0.4309 0.41601,-0.59766 0.13541,-0.16655 0.26562,-0.29633 0.39063,-0.38671 0.12848,-0.0937 0.26389,-0.14063 0.40625,-0.14063 0.0764,0 0.14931,0.0156 0.21875,0.0469 0.0729,0.0312 0.13542,0.0781 0.1875,0.14062 0.0556,0.059 0.0996,0.13182 0.13086,0.21875 0.0312,0.0869 0.0469,0.18834 0.0469,0.30273 0,0.0902 -0.0103,0.18399 -0.0312,0.28125 0.15277,-0.14941 0.29383,-0.27213 0.42578,-0.36914 0.13196,-0.0973 0.25415,-0.17503 0.36524,-0.23046 0.11112,-0.059 0.21291,-0.10056 0.30664,-0.125 0.0938,-0.0252 0.17949,-0.0371 0.25586,-0.0371 0.066,0 0.14171,0.0119 0.22851,0.0371 0.0868,0.0252 0.1697,0.0717 0.2461,0.13671 0.0764,0.066 0.13932,0.15747 0.1914,0.27539 0.0556,0.11465 0.084,0.26331 0.084,0.44727 0,0.14942 -0.026,0.30284 -0.0781,0.45898 -0.0521,0.1527 -0.11739,0.30655 -0.19726,0.4629 -0.0798,0.15269 -0.16558,0.30373 -0.25586,0.45312 -0.0903,0.14942 -0.17601,0.29288 -0.25586,0.43164 -0.0798,0.13884 -0.14516,0.27382 -0.19727,0.40234 -0.0521,0.12498 -0.0781,0.23944 -0.0781,0.34375 0,0.0799 0.018,0.13244 0.0527,0.16016 0.0347,0.0277 0.0716,0.043 0.11328,0.043 0.13196,0 0.28018,-0.0649 0.44336,-0.19336 0.1632,-0.13203 0.32748,-0.29632 0.49414,-0.49414 0.17013,-0.1978 0.33919,-0.41372 0.50586,-0.64648 0.16668,-0.23257 0.31772,-0.45371 0.45313,-0.66211 l 0.0137,0.0117 c 0.0723,-0.13855 0.15623,-0.27099 0.25195,-0.39648 0.15625,-0.20838 0.33572,-0.39826 0.53711,-0.56836 0.2014,-0.17008 0.40735,-0.31354 0.61914,-0.43164 0.21529,-0.12145 0.42883,-0.21523 0.64063,-0.28125 0.2118,-0.066 0.40451,-0.0996 0.57812,-0.0996 0.17013,0 0.31358,0.0203 0.43164,0.0586 0.12153,0.0348 0.22527,0.0793 0.3086,0.13477 0.0833,0.0522 0.14863,0.10939 0.19726,0.17188 0.0486,0.0625 0.0879,0.1223 0.11914,0.17773 l 0.28125,-0.37109 0.17188,0.11523 c 0,0.003 -0.0265,0.0574 -0.082,0.16602 -0.0556,0.10406 -0.12847,0.24469 -0.21875,0.42187 -0.0903,0.17713 -0.19684,0.38548 -0.31836,0.625 -0.11805,0.2361 -0.24305,0.48847 -0.375,0.75586 -0.12848,0.26736 -0.26108,0.5434 -0.39649,0.82813 -0.13195,0.28472 -0.25739,0.56359 -0.3789,0.83789 0.31597,-0.18067 0.59244,-0.35298 0.83203,-0.51954 0.2396,-0.16655 0.45314,-0.3356 0.64062,-0.50585 0.19097,-0.17008 0.36285,-0.34717 0.51563,-0.53125 0.15277,-0.18394 0.30099,-0.38423 0.44336,-0.59961 l 0.19336,0.14648 c -0.13889,0.22576 -0.28993,0.43647 -0.45313,0.63086 -0.15972,0.19099 -0.34961,0.38132 -0.56836,0.57227 -0.21528,0.18746 -0.4681,0.38256 -0.75976,0.58398 -0.28821,0.1978 -0.63195,0.41655 -1.03125,0.65625 -0.32986,0.80905 -0.64757,1.47613 -0.95313,2.00391 -0.30555,0.53125 -0.59679,0.95268 -0.87109,1.26171 -0.27083,0.30902 -0.52127,0.52539 -0.75391,0.6504 -0.23612,0.12497 -0.44922,0.1875 -0.63672,0.1875 -0.0764,0 -0.15733,-0.009 -0.24414,-0.0293 -0.0903,-0.0176 -0.1736,-0.0542 -0.25,-0.10938 -0.0764,-0.0557 -0.13889,-0.13346 -0.1875,-0.23047 -0.0521,-0.0973 -0.0781,-0.2223 -0.0781,-0.375 0,-0.29165 0.0781,-0.57855 0.23437,-0.86328 0.15277,-0.28472 0.37673,-0.56836 0.67188,-0.84961 0.29167,-0.28124 0.64865,-0.56009 1.07226,-0.83789 0.42709,-0.27777 0.91103,-0.55859 1.44922,-0.83984 0.066,-0.14942 0.12608,-0.29047 0.18164,-0.42578 0.0556,-0.13203 0.10765,-0.25412 0.15625,-0.36524 v -0.002 c -0.18056,0.12145 -0.36806,0.2199 -0.5625,0.29297 -0.19096,0.0763 -0.37564,0.11328 -0.55273,0.11328 -0.13196,0 -0.2626,-0.0183 -0.39453,-0.0566 -0.13196,-0.0383 -0.25176,-0.10082 -0.35938,-0.1875 -0.10764,-0.0902 -0.19575,-0.20763 -0.26172,-0.35352 -0.0694,-0.14588 -0.10351,-0.32776 -0.10351,-0.54296 0,-0.0691 0.003,-0.13749 0.01,-0.20508 -0.10621,0.15376 -0.22636,0.31577 -0.35937,0.48633 -0.13196,0.17007 -0.27301,0.32869 -0.42578,0.47461 -0.15277,0.14236 -0.31141,0.26173 -0.47461,0.35546 -0.15972,0.0937 -0.32118,0.13868 -0.48438,0.13868 -0.0937,0 -0.17948,-0.0156 -0.25586,-0.0469 -0.0764,-0.0312 -0.14173,-0.0735 -0.19726,-0.12891 -0.0521,-0.0557 -0.0938,-0.12054 -0.125,-0.19335 -0.0312,-0.0764 -0.0469,-0.15488 -0.0469,-0.23829 0,-0.1353 0.0289,-0.28112 0.0879,-0.4375 0.0625,-0.15974 0.14022,-0.3236 0.23047,-0.49023 0.0903,-0.16655 0.18924,-0.3332 0.29688,-0.5 0.10764,-0.17008 0.20659,-0.33156 0.29687,-0.48438 0.0903,-0.15269 0.16362,-0.29329 0.22266,-0.42187 0.0625,-0.13203 0.0937,-0.24611 0.0937,-0.33984 0,-0.10759 -0.0289,-0.19646 -0.0879,-0.26954 -0.0556,-0.0728 -0.13607,-0.10937 -0.24024,-0.10937 -0.11111,0 -0.23894,0.0469 -0.38476,0.14062 -0.14584,0.0902 -0.30969,0.22324 -0.49024,0.4004 -0.18056,0.17713 -0.37847,0.39586 -0.59375,0.65625 -0.2118,0.25693 -0.4414,0.551 -0.6914,0.88085 -0.14236,0.191 -0.28256,0.3737 -0.41797,0.55079 -0.059,0.0763 -0.11677,0.1545 -0.17578,0.23437 -0.059,0.0799 -0.11873,0.16036 -0.17774,0.24024 -0.059,0.0763 -0.11393,0.1492 -0.16601,0.21875 -0.0521,0.0728 -0.099,0.13534 -0.14063,0.1875 l -0.45898,-0.1875 0.60937,-0.8379 c 0.0868,-0.11792 0.17535,-0.24532 0.26563,-0.38085 0.0903,-0.13531 0.17882,-0.27353 0.26562,-0.41602 0.0903,-0.14589 0.17601,-0.29174 0.25586,-0.4375 0.0798,-0.14589 0.15319,-0.2889 0.22266,-0.42773 0.10069,-0.20838 0.17078,-0.38025 0.20898,-0.51563 0.0382,-0.13883 0.0566,-0.25058 0.0566,-0.33398 0,-0.0937 -0.0161,-0.15393 -0.0508,-0.18164 -0.0347,-0.0312 -0.084,-0.0469 -0.14648,-0.0469 -0.066,0 -0.14171,0.0359 -0.22852,0.10547 -0.0833,0.066 -0.17144,0.15217 -0.26172,0.25976 -0.0903,0.10407 -0.18163,0.22382 -0.27539,0.35938 -0.0903,0.13203 -0.17644,0.26463 -0.25976,0.39648 -0.0833,0.13204 -0.16146,0.25708 -0.23438,0.375 -0.0729,0.11793 -0.13499,0.21209 -0.18359,0.28516 -0.10065,0.18058 -0.21534,0.37348 -0.34375,0.57813 -0.125,0.20485 -0.26563,0.39515 -0.42188,0.57226 -0.15624,0.17361 -0.32812,0.31902 -0.51562,0.43359 -0.18749,0.11465 -0.39105,0.17188 -0.61328,0.17188 -0.20833,0 -0.36935,-0.0625 -0.48047,-0.1875 -0.11112,-0.12498 -0.16602,-0.28645 -0.16602,-0.48438 0,-0.0717 0.005,-0.14507 0.0156,-0.21875 -0.0219,0.0273 -0.0454,0.056 -0.0684,0.084 -0.12848,0.15269 -0.26672,0.29375 -0.41602,0.42578 -0.14931,0.13203 -0.30795,0.24145 -0.47461,0.32813 -0.1632,0.0869 -0.32986,0.13085 -0.5,0.13085 -0.14236,0 -0.27821,-0.026 -0.41015,-0.0781 -0.12848,-0.0554 -0.24307,-0.14121 -0.34375,-0.25586 -0.0972,-0.11792 -0.17772,-0.26658 -0.24024,-0.44727 -0.059,-0.18066 -0.0879,-0.39701 -0.0879,-0.65039 0,-0.023 -3.8e-4,-0.0471 0,-0.0703 -0.0358,0.0548 -0.0767,0.11548 -0.12109,0.17969 -0.0938,0.13531 -0.20358,0.28113 -0.33203,0.4375 -0.12848,0.15269 -0.26867,0.29375 -0.41797,0.42578 -0.14932,0.13203 -0.306,0.24145 -0.47266,0.32813 -0.1632,0.0869 -0.32986,0.13085 -0.5,0.13085 -0.14236,0 -0.28016,-0.026 -0.41211,-0.0781 -0.12848,-0.0554 -0.24306,-0.14121 -0.34375,-0.25586 -0.0972,-0.11792 -0.17772,-0.26658 -0.24023,-0.44727 -0.059,-0.18066 -0.0879,-0.39701 -0.0879,-0.65039 0,-0.0169 -2.1e-4,-0.0338 0,-0.0508 -0.002,0.003 -0.004,0.005 -0.006,0.008 -0.0798,0.1285 -0.16839,0.25869 -0.26563,0.39062 -0.0937,0.1285 -0.19554,0.25355 -0.30664,0.375 -0.11112,0.12145 -0.22851,0.23049 -0.35351,0.32422 -0.12153,0.0937 -0.2513,0.16697 -0.38672,0.22266 -0.13541,0.0557 -0.27365,0.084 -0.41602,0.084 -0.20832,0 -0.36175,-0.0625 -0.45898,-0.1875 -0.0972,-0.12498 -0.14453,-0.28643 -0.14453,-0.48438 v -0.0879 c 0.004,-0.0486 0.009,-0.0875 0.0156,-0.11523 -0.1736,0.21871 -0.34027,0.40056 -0.5,0.54297 -0.15624,0.14236 -0.30967,0.25449 -0.45898,0.33789 -0.14584,0.0834 -0.28885,0.14063 -0.42774,0.17187 -0.1354,0.0348 -0.26561,0.0527 -0.39062,0.0527 -0.13196,0 -0.25695,-0.0233 -0.375,-0.0684 -0.11457,-0.0416 -0.21395,-0.1041 -0.30078,-0.1875 -0.0903,-0.0834 -0.16038,-0.18519 -0.20899,-0.30664 -0.0521,-0.12145 -0.0781,-0.26205 -0.0781,-0.42188 0,-0.0753 0.006,-0.15494 0.0195,-0.23828 -0.0202,0.0239 -0.0401,0.0472 -0.0605,0.0703 -0.2118,0.2361 -0.43012,0.43401 -0.65234,0.59375 -0.22221,0.15975 -0.4466,0.27951 -0.67578,0.35938 -0.22917,0.0799 -0.45312,0.11914 -0.67188,0.11914 -0.1736,0 -0.34027,-0.026 -0.5,-0.0781 -0.15624,-0.0522 -0.29643,-0.13032 -0.41797,-0.23438 -0.11804,-0.10759 -0.21223,-0.24343 -0.28515,-0.41016 -0.0694,-0.1668 -0.10547,-0.36471 -0.10547,-0.59375 0,-0.0495 0.001,-0.0999 0.004,-0.14843 -0.13896,0.20046 -0.27846,0.38097 -0.41992,0.53906 -0.23612,0.26043 -0.47288,0.47159 -0.70898,0.63476 -0.23264,0.16328 -0.46181,0.2807 -0.6875,0.35352 -0.22569,0.0728 -0.43966,0.10938 -0.64453,0.10938 -0.14932,0 -0.30796,-0.0209 -0.47461,-0.0625 -0.16668,-0.0416 -0.32054,-0.10978 -0.46289,-0.20704 -0.13889,-0.0973 -0.25347,-0.22747 -0.34375,-0.39062 -0.0938,-0.16328 -0.14063,-0.3664 -0.14063,-0.60938 0,-0.0546 0.002,-0.10844 0.006,-0.16211 -0.0858,0.14793 -0.17038,0.28886 -0.25195,0.42579 -0.19097,0.32292 -0.3865,0.60134 -0.58789,0.83398 -0.2014,0.23609 -0.41494,0.42078 -0.64063,0.55273 -0.22569,0.13204 -0.48328,0.19727 -0.77148,0.19727 -0.26736,0 -0.4757,-0.0752 -0.625,-0.22461 -0.14584,-0.14589 -0.21875,-0.35423 -0.21875,-0.625 0,-0.18746 0.0284,-0.36498 0.084,-0.53516 0.0556,-0.17007 0.11568,-0.33674 0.18164,-0.5 0.0695,-0.16327 0.13194,-0.32711 0.1875,-0.49023 0.0556,-0.16328 0.084,-0.33276 0.084,-0.50977 0,-0.15622 -0.026,-0.30206 -0.0781,-0.4375 -0.0486,-0.1353 -0.1187,-0.26506 -0.20898,-0.38671 -0.10764,0 -0.23026,-0.004 -0.36914,-0.0137 -0.13541,-0.0101 -0.26562,-0.031 -0.39063,-0.0625 -0.12152,-0.0312 -0.22526,-0.0778 -0.30859,-0.13671 -0.0833,-0.059 -0.125,-0.13712 -0.125,-0.23438 0,-0.0869 0.036,-0.15513 0.10547,-0.20703 0.0694,-0.0557 0.17123,-0.084 0.30664,-0.084 0.15624,0 0.30729,0.0366 0.45312,0.10938 0.14584,0.0695 0.28929,0.161 0.43164,0.27539 0.2014,-0.0451 0.3889,-0.12597 0.5625,-0.24414 0.17361,-0.11792 0.32422,-0.25855 0.44922,-0.42188 0.12848,-0.16655 0.22744,-0.35123 0.29688,-0.55273 0.0729,-0.20132 0.10937,-0.40726 0.10937,-0.61914 0,-0.21871 -0.0308,-0.41902 -0.0898,-0.59961 -0.059,-0.18394 -0.14236,-0.3482 -0.25,-0.49414 -0.10764,-0.14589 -0.23308,-0.27329 -0.37891,-0.38086 -0.14584,-0.11112 -0.30686,-0.20257 -0.48047,-0.27539 -0.26389,0.28818 -0.5039,0.61914 -0.72265,0.99414 -0.21876,0.37153 -0.42948,0.76691 -0.63086,1.18359 -0.19792,0.41321 -0.39063,0.83552 -0.57813,1.26954 -0.18749,0.43056 -0.38302,0.85199 -0.58789,1.26171 -0.2014,0.40625 -0.41971,0.7893 -0.65234,1.15039 -0.22917,0.36113 -0.48437,0.67643 -0.76563,0.94727 -0.27777,0.27082 -0.58789,0.48435 -0.93164,0.64063 -0.34028,0.15622 -0.7233,0.23437 -1.15039,0.23437 -0.33333,0 -0.64583,-0.0522 -0.9375,-0.15625 -0.29164,-0.10406 -0.54687,-0.25791 -0.76562,-0.46289 -0.21876,-0.20132 -0.39302,-0.45132 -0.52149,-0.75 -0.125,-0.29861 -0.1875,-0.64236 -0.1875,-1.03125 0,-0.23609 0.0284,-0.49934 0.084,-0.79102 0.059,-0.29167 0.15039,-0.59614 0.27539,-0.91211 0.125,-0.31944 0.28407,-0.63996 0.47851,-0.96289 0.19793,-0.32637 0.43469,-0.64365 0.70899,-0.94921 0.27778,-0.30557 0.59787,-0.59202 0.95898,-0.85938 0.36459,-0.26736 0.77365,-0.49934 1.22852,-0.69727 0.45833,-0.20132 0.96593,-0.35996 1.52148,-0.4746 0.55556,-0.11465 1.16493,-0.17188 1.82813,-0.17188 0.22569,0 0.44964,0.0203 0.67187,0.0586 0.22221,0.0348 0.43619,0.087 0.64453,0.15625 0.12153,-0.0937 0.24892,-0.18417 0.38086,-0.26757 0.13196,-0.0867 0.2702,-0.16755 0.41602,-0.24414 z m 41.74023,0.0254 c -0.15624,0 -0.29969,0.0621 -0.43164,0.18359 -0.12848,0.11792 -0.2691,0.31345 -0.42187,0.58789 -0.15277,0.27429 -0.32747,0.63127 -0.52539,1.07227 -0.19792,0.44097 -0.43989,0.98263 -0.72461,1.625 0.38194,-0.37156 0.71527,-0.73092 1,-1.07813 0.28819,-0.35069 0.52777,-0.66883 0.71875,-0.95703 0.19097,-0.2882 0.33398,-0.5382 0.42773,-0.75 0.0972,-0.21518 0.14453,-0.3762 0.14453,-0.48047 0,-0.0625 -0.0161,-0.10976 -0.0508,-0.14453 -0.0347,-0.0383 -0.0812,-0.0586 -0.13672,-0.0586 z m -23.90625,0.29296 c -0.10764,0 -0.2487,0.0705 -0.42578,0.2129 -0.17708,0.14236 -0.36979,0.33743 -0.57812,0.58398 -0.20488,0.24315 -0.41842,0.52724 -0.64063,0.85352 -0.21876,0.3264 -0.42665,0.67534 -0.62109,1.04687 -0.19445,0.37153 -0.36675,0.75455 -0.51953,1.15039 -0.15275,0.39577 -0.26693,0.78368 -0.33985,1.16211 0.29513,-0.30555 0.58118,-0.61525 0.85547,-0.92773 0.27778,-0.31597 0.53581,-0.62608 0.77539,-0.93164 0.24305,-0.30904 0.46462,-0.60831 0.66602,-0.89649 0.2014,-0.29168 0.37327,-0.56531 0.51562,-0.82226 0.14237,-0.25694 0.25414,-0.49132 0.33399,-0.70313 0.0799,-0.21191 0.11914,-0.39418 0.11914,-0.54687 0,-0.0277 -0.0132,-0.0643 -0.041,-0.10938 -0.0278,-0.0486 -0.0614,-0.0723 -0.0996,-0.0723 z m 2.92774,0 c -0.10764,0 -0.25065,0.0705 -0.42774,0.2129 -0.17708,0.14236 -0.36979,0.33743 -0.57812,0.58398 -0.20485,0.24315 -0.41839,0.52724 -0.64063,0.85352 -0.21876,0.3264 -0.4247,0.67534 -0.61914,1.04687 -0.19444,0.37153 -0.3687,0.75455 -0.52148,1.15039 -0.15274,0.39575 -0.26497,0.78369 -0.33789,1.16211 0.29511,-0.30554 0.57923,-0.61527 0.85351,-0.92773 0.27778,-0.31597 0.53777,-0.62608 0.77735,-0.93164 0.24305,-0.30904 0.46461,-0.60831 0.66601,-0.89649 0.2014,-0.29168 0.37328,-0.56531 0.51563,-0.82226 0.14236,-0.25694 0.25413,-0.49132 0.33398,-0.70313 0.0799,-0.21191 0.11914,-0.39418 0.11914,-0.54687 0,-0.0277 -0.0132,-0.0643 -0.041,-0.10938 -0.0278,-0.0486 -0.0614,-0.0723 -0.0996,-0.0723 z m -22.81836,0.26563 c -0.64583,0 -1.26041,0.0862 -1.84375,0.25977 -0.57986,0.1736 -1.11914,0.40796 -1.61914,0.70312 -0.49653,0.29513 -0.94683,0.6365 -1.34961,1.02539 -0.39931,0.38889 -0.74067,0.79991 -1.02539,1.23047 -0.28125,0.42709 -0.49761,0.86458 -0.65039,1.3125 -0.15277,0.44445 -0.23047,0.86914 -0.23047,1.27539 0,0.25348 0.044,0.49306 0.13086,0.71875 0.0903,0.22576 0.21766,0.42129 0.38086,0.58789 0.1632,0.1668 0.35872,0.2994 0.58789,0.39649 0.22916,0.0973 0.48198,0.14648 0.75976,0.14648 0.37501,0 0.70834,-0.0752 1,-0.22461 0.29167,-0.14942 0.55686,-0.35016 0.79297,-0.60352 0.23612,-0.25695 0.4501,-0.5586 0.64453,-0.90234 0.19792,-0.34724 0.3902,-0.71463 0.57422,-1.10351 0.18749,-0.39237 0.37499,-0.79862 0.5625,-1.21875 0.19097,-0.42361 0.39691,-0.84028 0.61914,-1.25 0.22221,-0.40973 0.46939,-0.80319 0.74024,-1.18165 0.27083,-0.37848 0.58094,-0.72221 0.93164,-1.03125 -0.31945,-0.0937 -0.65516,-0.14062 -1.00586,-0.14062 z m 65.66211,0.96289 0.23437,0.14063 c -0.14931,0.24642 -0.30274,0.50921 -0.45898,0.7871 -0.15625,0.2743 -0.31011,0.55839 -0.46289,0.85352 h 1.69726 l -0.10351,0.27148 h -1.73438 c -0.15624,0.31252 -0.30446,0.62263 -0.44336,0.93165 -0.1354,0.30903 -0.25521,0.60351 -0.35937,0.88476 -0.10416,0.28125 -0.18511,0.54644 -0.24414,0.79297 -0.059,0.24315 -0.0879,0.45431 -0.0879,0.63477 0,0.22576 0.0521,0.38959 0.15625,0.49023 0.10416,0.0973 0.23198,0.14453 0.38476,0.14453 0.13541,0 0.27365,-0.0393 0.41602,-0.11914 0.14236,-0.0834 0.28255,-0.18752 0.41797,-0.3125 0.13888,-0.12498 0.26909,-0.26277 0.39062,-0.41211 0.125,-0.14942 0.23437,-0.29004 0.32813,-0.42187 0.0972,-0.13204 0.17579,-0.24479 0.23828,-0.3418 0.0625,-0.10079 0.10135,-0.16331 0.11523,-0.1875 l 0.19336,0.14453 c -0.12152,0.20132 -0.25933,0.41486 -0.41211,0.64063 -0.15276,0.22576 -0.32225,0.43646 -0.50976,0.63085 -0.18404,0.191 -0.38673,0.35007 -0.60547,0.47852 -0.21876,0.12498 -0.45357,0.1875 -0.70703,0.1875 -0.15625,0 -0.29405,-0.0266 -0.41211,-0.082 -0.1146,-0.0557 -0.21117,-0.13346 -0.29102,-0.23047 -0.0799,-0.10079 -0.13956,-0.21821 -0.17773,-0.35352 -0.0417,-0.1353 -0.0625,-0.28351 -0.0625,-0.44335 0,-0.0966 0.015,-0.23072 0.0449,-0.40235 -0.0753,0.10653 -0.15511,0.2144 -0.23828,0.32031 -0.18752,0.23963 -0.39346,0.456 -0.61914,0.65039 -0.22569,0.191 -0.46809,0.34485 -0.72852,0.4629 -0.26041,0.12144 -0.53645,0.18164 -0.82812,0.18164 -0.26042,0 -0.47917,-0.0625 -0.65625,-0.1875 -0.18056,-0.12145 -0.29234,-0.30418 -0.33399,-0.55079 l 0.1875,-0.0391 c 0,0.0202 0.0103,0.0561 0.0312,0.10547 0.0174,0.0451 0.0462,0.0897 0.0879,0.13477 0.0417,0.0451 0.099,0.0844 0.17188,0.11914 0.0694,0.0348 0.15755,0.0527 0.26172,0.0527 0.13888,0 0.2615,-0.0313 0.36914,-0.0937 0.10764,-0.066 0.2014,-0.14984 0.28125,-0.2539 0.0799,-0.10407 0.14759,-0.22344 0.20312,-0.35547 0.0556,-0.13531 0.0996,-0.27353 0.13086,-0.41602 0.0347,-0.14236 0.0584,-0.28061 0.0723,-0.41601 0.0139,-0.13531 0.0215,-0.25998 0.0215,-0.3711 0,-0.11112 -0.005,-0.23383 -0.0156,-0.36914 -0.007,-0.13531 -0.017,-0.26311 -0.0273,-0.38476 -0.0103,-0.12498 -0.0207,-0.23402 -0.0312,-0.32422 -0.007,-0.0937 -0.01,-0.15393 -0.01,-0.18164 v -0.0117 c -0.0451,0.0486 -0.0996,0.12111 -0.16211,0.21484 -0.0625,0.0937 -0.13023,0.19552 -0.20313,0.30664 -0.0694,0.11112 -0.13997,0.22325 -0.21289,0.33789 -0.0694,0.11465 -0.13432,0.21877 -0.19336,0.3125 -0.0556,0.0937 -0.10242,0.17189 -0.14062,0.23438 -0.0347,0.059 -0.0508,0.0902 -0.0508,0.0937 l -0.1875,-0.14453 c 0.004,-0.003 0.0456,-0.0777 0.1289,-0.22461 0.0833,-0.14589 0.1927,-0.33058 0.32813,-0.55274 0.13888,-0.22576 0.29513,-0.47337 0.46875,-0.74414 0.17361,-0.27429 0.35307,-0.53992 0.53711,-0.79687 l 0.20898,0.17187 v 0.002 c -0.0174,0.0312 -0.0406,0.0652 -0.0684,0.10352 -0.0278,0.0348 -0.0562,0.0764 -0.084,0.125 -0.0242,0.0451 -0.0454,0.0996 -0.0664,0.16211 -0.0174,0.0625 -0.0273,0.13573 -0.0273,0.22266 0,0.0728 0.018,0.1736 0.0527,0.29882 0.0382,0.12498 0.0775,0.26844 0.11914,0.43164 0.0417,0.15975 0.0805,0.33443 0.11524,0.5254 0.0382,0.18746 0.0566,0.38256 0.0566,0.58398 0,0.29513 -0.0393,0.55556 -0.11914,0.78125 -0.0798,0.22576 -0.1864,0.41845 -0.31836,0.57812 0.27084,-0.14588 0.53646,-0.3542 0.79687,-0.625 0.26042,-0.27429 0.52322,-0.62085 0.78711,-1.04101 l 0.0274,0.0234 c 0.0155,-0.055 0.0328,-0.11141 0.0508,-0.16993 0.0799,-0.26388 0.1864,-0.55839 0.31836,-0.88476 0.13541,-0.3264 0.30489,-0.67773 0.50976,-1.05274 h -0.86523 l 0.10547,-0.27148 h 0.91015 c 0.0347,-0.059 0.0968,-0.16075 0.1836,-0.30664 0.0903,-0.14589 0.19445,-0.30734 0.3125,-0.48438 0.12152,-0.17713 0.25173,-0.35421 0.39062,-0.53125 0.14237,-0.18066 0.2806,-0.33408 0.41602,-0.45898 z m -41.61914,1.19336 c 0.0729,0 0.13542,0.0283 0.1875,0.084 0.0521,0.0554 0.0781,0.11563 0.0781,0.18164 0,0.0695 -0.018,0.14241 -0.0527,0.21875 -0.0347,0.0728 -0.0792,0.13806 -0.13477,0.19727 -0.0521,0.059 -0.11177,0.10819 -0.17773,0.14648 -0.066,0.0383 -0.13128,0.0566 -0.19727,0.0566 -0.059,0 -0.10547,-0.0209 -0.13672,-0.0625 -0.0312,-0.0451 -0.0469,-0.0977 -0.0469,-0.16016 0,-0.0554 0.0103,-0.12262 0.0312,-0.19922 0.0209,-0.0764 0.0521,-0.14687 0.0937,-0.21289 0.0417,-0.0695 0.0933,-0.12936 0.15234,-0.17773 0.059,-0.0486 0.12676,-0.0723 0.20313,-0.0723 z m 29.03125,0.27148 0.18164,0.0723 -1.18164,2.375 c 0.20833,-0.26734 0.42707,-0.5169 0.65625,-0.74609 0.22916,-0.23257 0.46354,-0.42052 0.70312,-0.56641 0.17709,-0.10406 0.33333,-0.17654 0.46875,-0.21484 0.13541,-0.0416 0.26323,-0.0625 0.38477,-0.0625 0.11805,0 0.21462,0.0203 0.29101,0.0586 0.0764,0.0383 0.13847,0.0879 0.1836,0.15039 0.0451,0.0625 0.0764,0.13264 0.0937,0.20898 0.0174,0.0728 0.0254,0.14568 0.0254,0.21875 0,0.16328 -0.0284,0.32473 -0.084,0.48438 -0.0556,0.15975 -0.1237,0.31839 -0.20703,0.47461 -0.0798,0.15622 -0.16839,0.3101 -0.26562,0.46289 -0.0972,0.14942 -0.18816,0.29762 -0.27149,0.44336 -0.0799,0.14236 -0.14759,0.28299 -0.20312,0.42187 -0.0556,0.13884 -0.084,0.27187 -0.084,0.40039 0,0.0625 0.008,0.11468 0.0215,0.15625 0.0174,0.0383 0.0382,0.0696 0.0625,0.0937 0.0278,0.0202 0.0566,0.0335 0.0879,0.041 0.0312,0.008 0.0625,0.0117 0.0937,0.0117 0.066,0 0.14366,-0.0289 0.23047,-0.0879 0.0903,-0.0625 0.18447,-0.14298 0.28515,-0.24024 0.10069,-0.10078 0.20441,-0.21291 0.3086,-0.33789 0.10764,-0.1285 0.20943,-0.25869 0.30664,-0.39062 0.10069,-0.13531 0.19445,-0.26791 0.28125,-0.39649 0.0868,-0.13203 0.16255,-0.25178 0.22851,-0.35937 l 0.004,0.002 c 0.0707,-0.1181 0.14078,-0.23638 0.23633,-0.36133 0.19097,-0.25345 0.38888,-0.46699 0.59375,-0.64062 0.20833,-0.17361 0.41145,-0.31185 0.60937,-0.41602 0.2014,-0.10759 0.39172,-0.18536 0.57227,-0.23047 0.18056,-0.0451 0.34202,-0.0664 0.48437,-0.0664 0.31945,0 0.56142,0.0526 0.72461,0.16015 0.1632,0.10407 0.26216,0.26552 0.29688,0.48438 0.0694,-0.0869 0.14235,-0.17309 0.21875,-0.25977 0.0764,-0.0869 0.15452,-0.17542 0.23437,-0.26562 l 0.16602,0.0723 c -0.0451,0.0902 -0.10806,0.20763 -0.19141,0.35352 -0.0798,0.14589 -0.16796,0.30734 -0.26172,0.48438 -0.0937,0.1736 -0.18794,0.3559 -0.28515,0.54687 -0.0938,0.19099 -0.18187,0.37849 -0.26172,0.5625 -0.0764,0.18066 -0.13933,0.35253 -0.19141,0.51563 -0.0486,0.15974 -0.0742,0.29515 -0.0742,0.40625 0,0.11111 0.0208,0.18397 0.0625,0.21875 0.0451,0.0312 0.10244,0.0469 0.17188,0.0469 0.10069,0 0.2044,-0.0289 0.30859,-0.0879 0.10764,-0.059 0.21182,-0.13674 0.3125,-0.23047 0.10417,-0.0937 0.20355,-0.19823 0.30078,-0.31641 0.0972,-0.11792 0.18816,-0.23729 0.27149,-0.35546 0.0868,-0.12145 0.16493,-0.23421 0.23437,-0.3418 0.0695,-0.11112 0.12913,-0.2049 0.17774,-0.28125 l 0.1875,0.14453 c -0.059,0.11112 -0.12914,0.23087 -0.20899,0.35938 -0.0799,0.1285 -0.16839,0.25871 -0.26562,0.39062 -0.0938,0.1285 -0.19552,0.25355 -0.30664,0.375 -0.11112,0.12145 -0.23047,0.22853 -0.35547,0.32227 -0.12153,0.0937 -0.24934,0.16892 -0.38477,0.22461 -0.1354,0.0557 -0.27364,0.084 -0.41601,0.084 -0.20833,0 -0.36176,-0.0625 -0.45899,-0.1875 -0.0972,-0.12498 -0.14648,-0.28643 -0.14648,-0.48438 v -0.0879 c 0.004,-0.0486 0.009,-0.0875 0.0156,-0.11523 -0.1736,0.21871 -0.34027,0.3986 -0.5,0.54102 -0.15624,0.14236 -0.30772,0.25644 -0.45703,0.33984 -0.14584,0.0834 -0.28885,0.14063 -0.42773,0.17187 -0.13541,0.0348 -0.26562,0.0527 -0.39063,0.0527 -0.13195,0 -0.25695,-0.0233 -0.375,-0.0684 -0.11457,-0.0416 -0.2159,-0.1041 -0.30273,-0.1875 -0.0903,-0.0834 -0.15843,-0.18519 -0.20703,-0.30664 -0.0521,-0.12145 -0.0781,-0.26208 -0.0781,-0.42188 0,-0.0418 0.002,-0.0865 0.006,-0.13086 -0.0674,0.0892 -0.13941,0.17901 -0.21484,0.26954 -0.11805,0.14236 -0.24305,0.27257 -0.375,0.39062 -0.13196,0.11792 -0.26737,0.21404 -0.40625,0.28711 -0.13541,0.0763 -0.26844,0.11523 -0.40039,0.11523 -0.0903,0 -0.17839,-0.0153 -0.26172,-0.043 -0.0833,-0.0277 -0.15624,-0.0693 -0.21875,-0.125 -0.0625,-0.059 -0.11219,-0.1322 -0.15039,-0.22266 -0.0382,-0.0902 -0.0566,-0.19924 -0.0566,-0.32422 0,-0.14942 0.0289,-0.32131 0.0879,-0.51562 0.0625,-0.19452 0.17991,-0.41609 0.35351,-0.66602 0.14237,-0.20485 0.26693,-0.37433 0.3711,-0.50977 0.10416,-0.13883 0.18794,-0.25858 0.2539,-0.35937 0.0694,-0.10406 0.1211,-0.19785 0.15235,-0.28125 0.0312,-0.0867 0.0469,-0.1828 0.0469,-0.28711 0,-0.0902 -0.026,-0.16035 -0.0781,-0.20898 -0.0521,-0.0486 -0.11177,-0.0723 -0.17774,-0.0723 -0.17708,0 -0.35937,0.0516 -0.54687,0.15234 -0.18749,0.10079 -0.3726,0.23382 -0.55664,0.40039 -0.18404,0.16328 -0.3659,0.3508 -0.54297,0.5625 -0.17708,0.21191 -0.34418,0.42826 -0.50391,0.65039 -0.15624,0.21871 -0.30208,0.43463 -0.4375,0.64649 -0.13195,0.2119 -0.24654,0.40224 -0.34375,0.57226 -0.0972,0.16681 -0.17252,0.30222 -0.22461,0.40625 -0.0556,0.10079 -0.0844,0.15298 -0.0879,0.15625 -0.14584,0.29861 -0.28885,0.58747 -0.42773,0.86524 -0.13889,0.28127 -0.26909,0.5469 -0.39063,0.79687 -0.125,0.24996 -0.23958,0.47672 -0.34375,0.68164 -0.10416,0.20838 -0.19508,0.3883 -0.27148,0.54102 -0.0764,0.15269 -0.13413,0.27245 -0.17578,0.35938 -0.0451,0.0869 -0.0708,0.13344 -0.0742,0.13671 l -0.56641,-0.32421 c 0.28473,-0.53818 0.54037,-1.02299 0.76953,-1.45704 0.22917,-0.43401 0.44792,-0.84503 0.65625,-1.23046 0.20833,-0.38194 0.41384,-0.75216 0.61524,-1.11329 0.2014,-0.36109 0.41494,-0.73849 0.64062,-1.13086 0.22569,-0.39584 0.47048,-0.8201 0.73438,-1.27148 0.26736,-0.45488 0.57183,-0.96571 0.91211,-1.53516 z m -46.60938,1.06641 c -0.15277,0 -0.32464,0.0549 -0.51562,0.16602 -0.19097,0.10759 -0.38324,0.25863 -0.57422,0.45312 -0.19097,0.19099 -0.37087,0.41733 -0.54102,0.67774 -0.16667,0.2604 -0.30209,0.53928 -0.40625,0.83789 0.23265,-0.0252 0.45139,-0.0725 0.65625,-0.14454 0.20485,-0.0728 0.39235,-0.16131 0.5625,-0.26562 0.17013,-0.10759 0.32117,-0.22463 0.45313,-0.34961 0.13541,-0.12498 0.24761,-0.25235 0.33789,-0.38086 0.0903,-0.1285 0.16038,-0.25122 0.20898,-0.36914 0.0486,-0.11817 0.0723,-0.22463 0.0723,-0.31836 0,-0.0937 -0.026,-0.16697 -0.0781,-0.22266 -0.0486,-0.0557 -0.10634,-0.084 -0.17578,-0.084 z m 40.51953,0 c -0.15276,0 -0.32464,0.0549 -0.51562,0.16602 -0.19097,0.10759 -0.38129,0.25863 -0.57227,0.45312 -0.19096,0.19099 -0.37087,0.41733 -0.54101,0.67774 -0.16668,0.2604 -0.3021,0.53928 -0.40625,0.83789 0.23264,-0.0252 0.45139,-0.0725 0.65625,-0.14454 0.20485,-0.0728 0.39235,-0.16131 0.5625,-0.26562 0.17015,-0.10759 0.32119,-0.22463 0.45312,-0.34961 0.13541,-0.12498 0.24761,-0.25235 0.33789,-0.38086 0.0903,-0.1285 0.16038,-0.25122 0.20899,-0.36914 0.0486,-0.11817 0.0723,-0.22463 0.0723,-0.31836 0,-0.0937 -0.026,-0.16697 -0.0781,-0.22266 -0.0486,-0.0557 -0.10829,-0.084 -0.17774,-0.084 z m 11.38672,0.18164 c -0.10764,0 -0.22982,0.018 -0.36523,0.0527 -0.13196,0.0312 -0.27497,0.0881 -0.42774,0.16796 -0.14931,0.0763 -0.30317,0.17814 -0.46289,0.30664 -0.15972,0.12851 -0.31879,0.28758 -0.47851,0.47852 -0.23957,0.28818 -0.42664,0.57746 -0.5586,0.86914 -0.12847,0.2882 -0.1914,0.54861 -0.1914,0.78125 0,0.1978 0.0445,0.35124 0.13476,0.45899 0.0903,0.10759 0.2181,0.1621 0.38477,0.1621 0.19097,0 0.37044,-0.0416 0.53711,-0.125 0.16668,-0.0869 0.32292,-0.19867 0.46875,-0.33398 0.14584,-0.13531 0.28407,-0.28396 0.41601,-0.44727 0.13193,-0.1668 0.26171,-0.33066 0.38672,-0.49023 0.0451,-0.0728 0.10003,-0.16427 0.16602,-0.27539 0.066,-0.11465 0.13606,-0.23169 0.20898,-0.34961 0.0729,-0.12145 0.14345,-0.23654 0.21289,-0.34766 0.0695,-0.11111 0.12956,-0.2049 0.18164,-0.28125 0,-0.0312 -0.005,-0.0828 -0.0156,-0.15234 -0.007,-0.0695 -0.0283,-0.13969 -0.0664,-0.20898 -0.0382,-0.0728 -0.10026,-0.13339 -0.18359,-0.18555 -0.0833,-0.0522 -0.19834,-0.0801 -0.34766,-0.0801 z m -44.27148,0.002 c -0.10764,0 -0.22983,0.016 -0.36524,0.0508 -0.13195,0.0312 -0.27301,0.0881 -0.42578,0.16796 -0.14931,0.0763 -0.30513,0.17814 -0.46484,0.30664 -0.15972,0.12851 -0.31879,0.28758 -0.47852,0.47852 -0.23959,0.2882 -0.42471,0.57942 -0.55664,0.87109 -0.12848,0.28818 -0.19336,0.54861 -0.19336,0.78125 0,0.1978 0.0445,0.34927 0.13477,0.45704 0.0903,0.10759 0.22005,0.1621 0.38672,0.1621 0.19096,0 0.36848,-0.0416 0.53515,-0.125 0.16668,-0.0869 0.32293,-0.19867 0.46875,-0.33398 0.14584,-0.13531 0.28603,-0.28396 0.41797,-0.44727 0.13196,-0.1668 0.25978,-0.33063 0.38477,-0.49023 0.0451,-0.0728 0.10002,-0.16427 0.16601,-0.27539 0.066,-0.11465 0.13607,-0.23169 0.20899,-0.34961 0.0729,-0.12145 0.14345,-0.23654 0.21289,-0.34766 0.0694,-0.11111 0.13151,-0.2049 0.18359,-0.28125 0,-0.0312 -0.005,-0.0828 -0.0156,-0.15234 -0.007,-0.0695 -0.0303,-0.13774 -0.0684,-0.20703 -0.0382,-0.0728 -0.0983,-0.13534 -0.18164,-0.1875 -0.0833,-0.0522 -0.2003,-0.0781 -0.34961,-0.0781 z m 18.04687,0.004 c -0.11804,0 -0.25346,0.0156 -0.40625,0.0469 -0.14931,0.0312 -0.30795,0.0858 -0.47461,0.1621 -0.16667,0.0763 -0.33616,0.17814 -0.50976,0.30665 -0.17013,0.1285 -0.3368,0.28995 -0.5,0.48437 -0.23957,0.28472 -0.42425,0.56879 -0.55274,0.85352 -0.12847,0.28124 -0.1914,0.53884 -0.1914,0.77148 0,0.22576 0.0573,0.39765 0.17187,0.51563 0.11457,0.11464 0.27082,0.17187 0.46875,0.17187 0.20833,0 0.42751,-0.0649 0.66016,-0.19336 0.23612,-0.1285 0.47006,-0.29799 0.69922,-0.50976 0.0938,-0.17714 0.18511,-0.35138 0.27539,-0.52149 0.0938,-0.17361 0.1899,-0.34549 0.28711,-0.51562 0.10068,-0.17361 0.20529,-0.35069 0.3164,-0.53125 0.1146,-0.18067 0.24199,-0.36816 0.38086,-0.5625 -0.007,-0.0522 -0.0251,-0.10473 -0.0527,-0.16016 -0.0278,-0.0557 -0.0647,-0.10724 -0.11328,-0.15234 -0.0486,-0.0486 -0.11111,-0.0879 -0.1875,-0.11914 -0.0764,-0.0312 -0.16732,-0.0469 -0.27149,-0.0469 z m -31.97461,0.01 c -0.0456,0 -0.0795,0.0102 -0.0976,0.0234 -0.0174,0.0126 -0.0274,0.0282 -0.0274,0.0469 0,0.0312 0.0232,0.0572 0.0684,0.0781 0.0452,0.0176 0.10005,0.0333 0.16602,0.0469 0.0694,0.0101 0.14192,0.017 0.21484,0.0195 0.0764,0.003 0.14455,0.003 0.20703,0 -0.0868,-0.059 -0.17815,-0.11052 -0.27539,-0.15234 -0.0972,-0.0416 -0.18296,-0.0625 -0.25586,-0.0625 z m 30.52149,4.44336 c -0.51736,0.27084 -0.96007,0.55209 -1.32813,0.84375 -0.36458,0.29513 -0.66384,0.57638 -0.89648,0.84375 -0.23264,0.26736 -0.39974,0.50932 -0.50391,0.7246 -0.10764,0.21519 -0.16211,0.37945 -0.16211,0.49415 0,0.14236 0.0312,0.2594 0.0937,0.3496 0.0625,0.0902 0.17472,0.13477 0.33789,0.13477 0.13196,0 0.26976,-0.0492 0.41211,-0.14648 0.14237,-0.0973 0.28581,-0.23029 0.43164,-0.40039 0.14584,-0.16656 0.29124,-0.36165 0.4336,-0.58399 0.14236,-0.22224 0.28298,-0.45943 0.42187,-0.71289 0.13889,-0.24995 0.26953,-0.50755 0.39453,-0.77148 0.12848,-0.26392 0.25067,-0.52194 0.36524,-0.77539 z"
       transform="scale(0.26458333)" />
  </g>
</svg>
